<svg xmlns="http://www.w3.org/2000/svg" viewBox="0 0 229 238.35"><defs><style>.cls-1{fill:none;}.cls-2{fill:#ab15b5;}</style></defs><g id="Layer_2" data-name="Layer 2"><g id="Layer_1-2" data-name="Layer 1"><g id="Polygon_2-2" data-name="Polygon 2-2"><path class="cls-1" d="M203.42,1.2a19,19,0,0,1,25.27,21.2L192.51,222.71a19,19,0,0,1-30.91,11.18L6.79,104a19,19,0,0,1,5.64-32.38Z"/><path class="cls-2" d="M221.56,5.24a17.84,17.84,0,0,0-17.8-3.1l-191,70.41a18,18,0,0,0-5.34,30.68l154.8,129.89a18,18,0,0,0,29.28-10.59L227.7,22.23a17.84,17.84,0,0,0-6.14-17m.64-.77a18.84,18.84,0,0,1,6.49,17.93L192.51,222.71a19,19,0,0,1-30.91,11.18L6.79,104a19,19,0,0,1,5.64-32.38l191-70.41A18.81,18.81,0,0,1,222.2,4.47Z"/></g></g></g></svg>