<svg xmlns="http://www.w3.org/2000/svg" viewBox="0 0 226.48 213.08"><defs><style>.cls-1{fill:none;}.cls-2{fill:#02c69c;}</style></defs><g id="Layer_2" data-name="Layer 2"><g id="Layer_1-2" data-name="Layer 1"><g id="Polygon_4-2" data-name="Polygon 4-2"><path class="cls-1" d="M78.43,9.17a15,15,0,0,1,19.65-8A15.19,15.19,0,0,1,104.25,6L223.47,165a15,15,0,0,1-10.18,23.89L16.85,213A15,15,0,0,1,1.2,192.24Z"/><path class="cls-2" d="M90.54,1.11A13.85,13.85,0,0,0,79.35,9.56L2.12,192.63A14,14,0,0,0,16.73,212l196.44-24.12a14,14,0,0,0,9.5-22.3L103.45,6.6A13.85,13.85,0,0,0,90.54,1.11m-.12-1A14.86,14.86,0,0,1,104.25,6L223.47,165a15,15,0,0,1-10.18,23.89L16.85,213A15,15,0,0,1,1.2,192.24L78.43,9.17A14.83,14.83,0,0,1,90.42.12Z"/></g></g></g></svg>