<svg xmlns="http://www.w3.org/2000/svg" viewBox="0 0 237.77 255.29"><defs><style>.cls-1{fill:none;}.cls-2{fill:#eed809;}</style></defs><g id="Layer_2" data-name="Layer 2"><g id="Layer_1-2" data-name="Layer 1"><g id="Polygon_4-2" data-name="Polygon 4-2"><path class="cls-1" d="M.13,23.38A21.05,21.05,0,0,1,29.66,1.87L225.33,89.6a21,21,0,0,1,3.78,36.21L56.92,251.23a21,21,0,0,1-33.3-14.71Z"/><path class="cls-2" d="M9.25,4.88a20.16,20.16,0,0,0-6.43,7.8,19.73,19.73,0,0,0-1.55,5,20.33,20.33,0,0,0-.14,5.57L24.61,236.41a20,20,0,0,0,31.72,14L228.52,125a20,20,0,0,0-3.6-34.49L29.25,2.79a20.16,20.16,0,0,0-5.34-1.57,19.3,19.3,0,0,0-5.26-.07,20.15,20.15,0,0,0-9.4,3.73m-.59-.81a20.86,20.86,0,0,1,21-2.2L225.33,89.6a21,21,0,0,1,3.78,36.21L56.92,251.23a21,21,0,0,1-33.3-14.71L.13,23.38A20.83,20.83,0,0,1,8.66,4.07Z"/></g></g></g></svg>