<?xml version="1.0" encoding="utf-8"?>
<!-- Generator: Adobe Illustrator 25.0.0, SVG Export Plug-In . SVG Version: 6.00 Build 0)  -->
<svg version="1.0" id="Layer_1" xmlns="http://www.w3.org/2000/svg" xmlns:xlink="http://www.w3.org/1999/xlink" x="0px" y="0px"
	 viewBox="0 0 571.97 459.86" style="enable-background:new 0 0 571.97 459.86;" xml:space="preserve">
<style type="text/css">
	.st0{fill:#ADADAD;}
</style>
<g>
	<path class="st0" d="M500.94,349.59c-0.35,0.47-0.83,0.65-1.43,0.64c-2.74-0.01-5.48,0.01-8.23,0c-1.11-0.01-1.48-0.38-1.49-1.59
		c-0.02-2.58,0-5.15,0-7.74c0-10.35,0-20.7,0-31.06c0-2.53-0.27-5.01-1-7.45c-1.34-4.38-4.2-7.12-8.68-8.15
		c-4.17-0.96-8.25-0.77-12.14,1.12c-4.96,2.4-7.75,6.45-8.57,11.86c-0.17,1.12-0.21,2.27-0.21,3.42
		c-0.01,12.41,0.01,24.82,0.01,37.23c0,0.43,0.01,0.85-0.04,1.27c-0.07,0.68-0.38,0.97-1.07,1.06c-0.26,0.03-0.52,0.01-0.78,0.01
		c-2.41,0-4.83,0-7.24,0c-0.2,0-0.4,0.01-0.59,0.01c-1.1-0.03-1.47-0.38-1.48-1.49c-0.02-2.88,0-5.75,0-8.62c0-28.55,0-57.1,0-85.64
		c0-2.02,0-2.01,1.98-2.03c2.51,0,5.02-0.02,7.54-0.03c1.28-0.01,1.66,0.33,1.67,1.6c0.01,3.27-0.01,6.53-0.01,9.8
		c0,8.95,0,17.9,0,26.85v1.03c0.48-0.06,0.63-0.43,0.84-0.67c1.74-1.97,3.68-3.72,5.92-5.11c2.97-1.83,6.23-2.79,9.7-3.08
		c4.23-0.35,8.37,0.02,12.32,1.63c7.05,2.87,11.13,8.18,12.59,15.58c0.19,0.96,0.26,1.93,0.38,2.89V349.59z M238.71,69.71
		c-0.28,0.2-0.56,0.42-0.87,0.59c-1.2,0.67-2.42,1.29-3.6,1.98c-2.01,1.17-3.86,2.56-5.32,4.41c-1.84,2.33-2.72,4.95-2.35,7.93
		c0.29,2.3,1.33,4.26,2.74,6.07c0.56,0.71,1.22,1,2.11,0.98c4.64-0.1,9.01-3.63,10.03-8.18c0.48-2.13,0.43-4.27,0.1-6.42
		c-0.41-2.56-1.27-4.98-2.27-7.36H238.71z M171.88,69.71c-0.47,1.53-0.94,3.06-1.4,4.58c-0.69,2.3-1.12,4.63-0.96,7.05
		c0.18,2.81,1.12,5.29,3.25,7.22c2.14,1.95,4.76,2.75,7.57,3.1c0.64,0.07,1.16-0.2,1.5-0.74c0.63-0.98,1.35-1.94,1.84-2.99
		c1.94-4.04,1.55-7.85-1.33-11.32c-1.46-1.74-3.17-3.2-5.15-4.32c-1.2-0.68-2.42-1.31-3.61-1.98c-0.27-0.15-0.49-0.39-0.73-0.59
		H171.88z M333.76,390.15c0.37-0.12,0.74-0.26,1.1-0.36c1.63-0.47,2.66-1.53,2.9-3.21c0.12-0.82,0.12-1.7,0-2.53
		c-0.21-1.4-1.07-2.31-2.49-2.52c-1.12-0.17-2.27-0.17-3.4-0.25c-0.59-0.04-1.18-0.05-1.75-0.15c-0.77-0.15-1.05-0.56-0.91-1.34
		c0.08-0.48,0.26-0.93,0.4-1.4c0.4,0,0.73,0.02,1.04,0c0.94-0.09,1.9-0.08,2.81-0.29c1.73-0.41,2.67-1.55,2.84-3.32
		c0.14-1.37,0.18-2.74-0.56-4c-0.02-0.04,0.04-0.11,0.09-0.24h2.23v-1.77c-0.4,0-0.76,0-1.11,0c-1.5,0.02-2.99,0.1-4.48-0.16
		c-0.85-0.15-1.76-0.11-2.63-0.02c-2.18,0.22-3.56,1.49-3.83,3.66c-0.27,2.13-0.19,4.21,1.9,5.57c0.04,0.03,0.04,0.12,0.09,0.24
		c-0.77,1.3-1.37,2.67-0.2,4.09c-0.06,0.1-0.08,0.16-0.12,0.21c-0.12,0.11-0.23,0.23-0.36,0.33c-1.66,1.22-1.83,2.9-1.41,4.74
		c0.27,1.18,1.01,1.95,2.16,2.33c0.4,0.13,0.8,0.26,1.2,0.38H333.76z M333.86,383.31c1.34,0.12,1.85,0.69,1.89,2
		c0.04,1.8-0.66,2.71-2.45,2.89c-1.13,0.11-2.28,0.12-3.4-0.01c-1.91-0.23-2.79-2.43-1.68-4.03c0.51-0.74,1.14-1.23,2.12-1.06
		c0.48,0.08,0.97,0.07,1.63,0.11C332.5,383.24,333.18,383.24,333.86,383.31 M331.21,370.31c0.29,0,0.58,0.02,0.88,0.06
		c1.23,0.19,1.9,0.75,2.07,1.98c0.11,0.82,0.07,1.69-0.05,2.52c-0.14,0.87-0.72,1.48-1.62,1.6c-0.8,0.11-1.63,0.17-2.42,0.06
		c-1.26-0.17-1.85-0.9-2-2.16c-0.03-0.28-0.04-0.58-0.05-0.72C328.02,371.18,328.91,370.29,331.21,370.31 M500.94,363.11
		c-0.35,0.03-0.71,0.09-1.06,0.09c-3.14,0.01-6.26,0-9.39,0h-1.11v20.09c0.36,0.02,0.69,0.05,1,0.05c1.86,0,3.72,0.01,5.58,0
		c1.66-0.01,3.32-0.03,4.98-0.05v-1.96h-9.34c-0.2-1.43-0.14-6.48,0.07-7.21c2.54-0.1,5.1,0.06,7.7-0.09c0-0.41,0.01-0.7,0-0.99
		c-0.01-0.28-0.05-0.56-0.08-0.91h-2.61c-0.89,0-1.77,0-2.65,0c-0.83-0.01-1.67-0.02-2.48-0.02c-0.17-1.92-0.1-6.16,0.11-6.9
		c0.9,0,1.8-0.01,2.72,0c2.18,0.01,4.37,0.03,6.55,0.05V363.11z M197.87,222.88c0,33.67,0,67.34-0.01,101.02
		c0,1.01-0.02,2.03-0.11,3.04c-0.47,5.09-3.92,8.83-8.99,9.52c-1.99,0.27-4.04,0.17-6.06,0.21c-1.14,0.02-1.41,0.23-1.41,1.35
		c-0.01,3.89-0.01,7.77,0,11.66c0,1.15,0.21,1.35,1.4,1.35c2.58-0.01,5.16,0.02,7.74-0.05c1.53-0.05,3.07-0.15,4.58-0.38
		c7.28-1.09,12.58-4.94,15.88-11.52c2.02-4.03,2.79-8.33,2.79-12.8c0-10.25,0-20.51,0.01-30.76c0-24.23,0.01-48.47,0.01-72.7
		c0-0.36-0.12-0.72-0.21-1.17c-5.23,1.89-10.36,1.77-15.63,0.05V222.88z M422.65,345.2c0.01,1.04,0.03,2.09-0.01,3.14
		c-0.06,1.69,0.14,1.9,1.87,1.89c2.42-0.02,4.83-0.03,7.25-0.01c2.09,0.02,2.18-0.04,2.18-2.09c0-7.16,0-14.31,0-21.46
		c0-7.87-0.01-15.75-0.04-23.62c-0.01-2.56-0.39-5.08-1.29-7.49c-1.86-5-5.43-8.29-10.31-10.25c-4.26-1.7-8.71-2.51-13.28-2.66
		c-5.21-0.18-10.3,0.5-15.22,2.27c-3.21,1.15-5.98,3.04-8.4,5.45c-0.88,0.88-0.89,1.35-0.12,2.16c1.77,1.88,3.55,3.74,5.33,5.62
		c0.7,0.74,0.94,0.7,1.69,0.04c0.8-0.72,1.61-1.45,2.49-2.06c1.19-0.83,2.56-1.27,3.94-1.7c5.9-1.81,11.78-1.73,17.63,0.23
		c2.95,1,4.93,2.99,5.81,6.01c0.36,1.23,0.43,2.5,0.44,3.78c0.01,1.51-0.01,3.01,0.07,4.51c0.14,2.11-0.17,2.53-2.26,2.55
		c-2.03,0.02-4.05-0.02-6.08-0.05c-5.58-0.07-11.17-0.22-16.74,0.33c-5.67,0.55-10.3,2.99-13.65,7.66
		c-2.32,3.25-3.46,6.92-3.63,10.91c-0.18,4.38,0.91,8.41,3.45,12.01c2.82,4.01,6.77,6.35,11.42,7.61c5.83,1.58,11.7,1.32,17.56,0.09
		c3.6-0.76,6.76-2.37,9.36-5.02c0.11-0.11,0.25-0.21,0.43-0.36C422.59,344.9,422.65,345.05,422.65,345.2 M421.1,320.78
		c0.2,0,0.39-0.01,0.59,0c0.79,0.04,0.96,0.2,0.96,1.01c0.01,1.24,0.01,2.48-0.01,3.72c-0.02,1.41,0.01,2.82-0.11,4.21
		c-0.1,1.09-0.32,2.21-0.66,3.25c-0.9,2.77-2.78,4.69-5.46,5.81c-6.04,2.5-12.22,2.8-18.48,0.87c-2.45-0.75-4.52-2.06-5.75-4.39
		c-1.41-2.69-1.55-5.51-0.5-8.34c0.75-2.03,2.24-3.41,4.14-4.39c2.56-1.32,5.33-1.7,8.15-1.74c2.71-0.04,5.42-0.01,8.13-0.01v0.01
		H421.1z M269.03,345.49c0,1.15-0.02,2.28-0.02,3.43c-0.01,1.03,0.23,1.26,1.26,1.29c0.16,0,0.33,0,0.49,0c2.55,0,5.09,0,7.64,0
		c0.26,0,0.53,0.01,0.78-0.01c0.71-0.07,1-0.33,1.08-1.03c0.05-0.42,0.04-0.85,0.03-1.27c0-13.92-0.01-27.83-0.03-41.74
		c-0.01-2,0.01-4-0.2-5.97c-0.63-5.82-3.41-10.33-8.44-13.41c-2.45-1.5-5.14-2.38-7.92-3.04c-5.61-1.33-11.26-1.33-16.93-0.5
		c-3.35,0.5-6.57,1.39-9.56,3.04c-2.1,1.16-3.99,2.6-5.63,4.36c-0.66,0.7-0.67,1.06-0.09,1.69c1.72,1.88,3.43,3.76,5.18,5.62
		c0.92,0.99,1.61,0.93,2.54-0.09c0.4-0.43,0.78-0.91,1.27-1.2c3.27-1.94,6.81-3.15,10.61-3.48c4.48-0.39,8.78,0.44,12.93,2.12
		c1.75,0.71,3.01,1.93,3.84,3.61c0.58,1.19,0.96,2.44,1.03,3.76c0.11,2.41,0.14,4.82,0.2,7.25c0,0.06,0,0.13-0.01,0.19
		c-0.09,0.81-0.39,1.19-1.19,1.32c-0.51,0.09-1.04,0.12-1.56,0.12c-4.94-0.04-9.87-0.17-14.8-0.12c-2.96,0.04-5.96,0.15-8.89,0.6
		c-5.88,0.89-10.44,3.94-13.44,9.15c-2.01,3.51-2.7,7.35-2.41,11.34c0.53,7.26,3.99,12.66,10.58,15.9
		c3.24,1.59,6.71,2.32,10.29,2.58c3.94,0.27,7.83-0.09,11.67-0.98c3.51-0.82,6.66-2.3,9.16-4.97c0.1-0.11,0.23-0.2,0.44-0.38
		C268.98,345,269.03,345.24,269.03,345.49 M267.79,320.78c1.13,0,1.24,0.12,1.23,1.23c-0.04,2.64-0.02,5.29-0.15,7.92
		c-0.06,1.09-0.33,2.21-0.7,3.24c-0.91,2.65-2.74,4.49-5.3,5.57c-6.17,2.59-12.47,2.87-18.84,0.82c-5.94-1.91-7.21-7.08-6.4-11.27
		c0.51-2.68,2.2-4.53,4.58-5.77c2.47-1.28,5.13-1.7,7.87-1.75c2.8-0.05,5.62-0.01,8.42-0.01v0.01H267.79z M186.3,183.22
		c0.1-0.51,0.24-1.03,0.26-1.54c0.11-3.1,0.14-6.2-0.36-9.28c-1.33-8.19-5.66-14.19-13.1-17.91c-5.15-2.56-10.65-3.89-16.36-4.4
		c-3.92-0.35-7.83-0.26-11.74,0.04c-1.6,0.12-3.19,0.32-4.77,0.51c-0.78,0.1-0.95,0.32-0.89,1.11c0.03,0.49,0.13,0.97,0.19,1.46
		c0.7,5.66,1.96,11.19,3.95,16.54c1.61,4.34,3.73,8.42,6.62,12.06c5.05,6.32,11.59,9.56,19.73,9.47c4.11-0.05,8.01-1,11.8-2.54
		c0.2-0.08,0.39-0.21,0.68-0.37c-1.27-0.38-2.43-0.69-3.57-1.07c-1.17-0.38-2.35-0.82-3.5-1.26c-1.12-0.43-2.24-0.89-3.36-1.36
		c-1.1-0.47-2.18-0.97-3.27-1.47c2.43,0.6,4.79,1.36,7.18,1.96c2.03,0.5,4.1,0.81,6.15,1.19c0.22,0.04,0.46-0.03,0.84-0.07
		c-0.4-0.35-0.63-0.56-0.88-0.77c-2.96-2.47-5.93-4.92-8.87-7.41c-2.71-2.31-5.37-4.67-8.06-7.01c-0.23-0.21-0.44-0.46-0.66-0.69
		c0.05-0.05,0.1-0.09,0.15-0.14c6.34,4.61,12.69,9.21,19.03,13.82c0.07-0.05,0.14-0.1,0.2-0.15c-0.28-0.96-0.54-1.93-0.86-2.88
		c-1.13-3.3-2.88-6.28-4.89-9.12c-0.16-0.23-0.31-0.47-0.46-0.7c3.93,3.41,6.35,7.84,8.55,12.59
		C186.18,183.49,186.27,183.36,186.3,183.22 M178.06,205.07c-2.66-0.82-5.39-1.29-8.15-1.4c-2.75-0.11-5.51-0.03-8.4-0.03
		c0.27-0.11,0.42-0.21,0.58-0.24c0.55-0.09,1.1-0.2,1.65-0.22c2.9-0.1,5.81-0.18,8.71-0.23c1.53-0.03,3.07,0,4.6-0.01
		c0.36,0,0.76,0.03,1.07-0.27c-0.1-0.13-0.16-0.22-0.23-0.28c-3-2.44-6.23-4.53-9.83-5.98c-5.31-2.12-10.7-2.48-16.18-0.68
		c-3.04,1-5.78,2.55-8.34,4.44c-8.16,5.99-13.45,14.2-17.92,23.05c-0.33,0.67-0.2,0.98,0.44,1.38c0.2,0.12,0.4,0.22,0.61,0.32
		c6.04,3.03,12.35,5.3,19,6.58c4.69,0.9,9.39,1.15,14.12,0.28c6.39-1.18,11.55-4.34,15.34-9.66c2.43-3.42,3.95-7.26,4.96-11.32
		c0.04-0.13,0-0.28,0-0.55c-0.41,0.27-0.72,0.46-1,0.66c-1.07,0.75-2.11,1.55-3.21,2.26c-2.4,1.56-4.83,3.1-7.26,4.63
		c-0.27,0.17-0.59,0.29-0.89,0.43c3.71-3.36,7.68-6.39,10.81-10.49c-0.78-0.23-1.31,0.06-1.85,0.22c-6.05,1.74-12.1,3.51-18.15,5.26
		c-1.08,0.32-2.19,0.61-3.27,0.91c-0.02-0.06-0.04-0.12-0.06-0.19c7.64-2.89,15.28-5.78,22.91-8.68
		C178.1,205.21,178.07,205.13,178.06,205.07 M209.99,178.31c2.8-1.66,5.29-3.71,7.49-6.1c5.6-6.08,7.73-13.17,6.16-21.33
		c-0.83-4.31-2.5-8.3-4.59-12.14c-3.31-6.08-7.71-11.31-12.61-16.16c-0.72-0.72-0.98-0.69-1.78,0.1c-3.36,3.35-6.49,6.9-9.19,10.81
		c-3.13,4.53-5.7,9.36-7.24,14.7c-0.95,3.29-1.35,6.65-0.98,10.07c0.61,5.56,2.98,10.3,6.83,14.32c2.43,2.54,5.25,4.6,8.21,6.48
		c0.11,0.07,0.25,0.1,0.57,0.22c-2.59-5.2-4.92-10.27-5.06-16.02c1.01,2.5,1.91,5.04,2.92,7.55c0.99,2.5,2.1,4.95,3.59,7.19
		c0.07-0.02,0.13-0.04,0.2-0.07c0.37-8.89,0.75-17.78,1.13-26.67h0.23c0.37,8.72,0.5,17.44,0.89,26.19
		c1.26-1.43,2.28-2.98,3.07-4.65c0.81-1.7,1.57-3.45,2.18-5.24c0.59-1.73,0.96-3.54,1.43-5.31c0.06,0.02,0.13,0.04,0.2,0.06
		c-0.12,5.85-2.37,11.12-4.58,16.51C209.38,178.64,209.69,178.49,209.99,178.31 M241.24,203.65c-2.7,0.15-5.37,0.61-7.94,1.54
		c0.19,0.17,0.36,0.25,0.54,0.32c3.88,1.45,7.77,2.89,11.66,4.33c3.76,1.4,7.53,2.78,11.29,4.19c0.3,0.11,0.71,0.13,0.83,0.52
		c-0.06,0.08-0.08,0.12-0.09,0.12c-8.35-2.42-16.69-4.83-25.24-7.32c0.34,0.44,0.56,0.75,0.79,1.04c3.16,3.89,6.9,7.12,11.2,9.69
		c0.28,0.16,0.54,0.36,0.81,0.54c-0.04,0.06-0.07,0.11-0.11,0.17c-0.3-0.1-0.61-0.2-0.9-0.32c-1.85-0.75-3.57-1.75-5.22-2.88
		c-2.43-1.67-4.63-3.61-6.82-5.57c-0.28-0.25-0.57-0.49-0.99-0.84c0.03,0.42,0.03,0.65,0.08,0.87c0.82,3.62,2.08,7.07,4,10.27
		c3.68,6.17,8.99,10.07,16.11,11.36c5.3,0.97,10.6,0.68,15.86-0.4c6.35-1.29,12.28-3.74,18.08-6.58c0.88-0.43,0.95-0.69,0.49-1.63
		c-2.62-5.32-5.65-10.38-9.48-14.93c-3.17-3.77-6.67-7.18-10.91-9.75c-5.79-3.51-12.01-4.62-18.63-3.01
		c-5.1,1.23-9.43,3.91-13.33,7.35c-0.08,0.08-0.11,0.2-0.23,0.39c5.53-0.63,10.95-1.09,16.29,0.51
		C246.65,203.63,243.94,203.51,241.24,203.65 M225.62,184.39c0.03,0,0.07-0.01,0.1-0.03c0.03-0.01,0.06-0.02,0.09-0.04
		c6.89-4.89,13.8-9.78,20.7-14.67c0.07-0.06,0.16-0.11,0.24-0.17c0.05-0.03,0.11-0.07,0.17-0.1c0.02-0.01,0.06-0.02,0.09-0.03
		c0.03,0,0.07,0,0.1,0.02c0.02,0.01,0.05,0.04,0.14,0.12c-0.06,0.35-0.41,0.51-0.67,0.71c-6.32,5.11-12.65,10.21-18.97,15.32
		c-0.26,0.21-0.51,0.45-0.76,0.67c5.75-0.14,11.08-1.67,16.22-4.05c-0.12,0.22-0.27,0.38-0.44,0.49c-1.04,0.61-2.07,1.26-3.14,1.8
		c-3.26,1.63-6.76,2.57-10.28,3.47c-0.57,0.15-1.14,0.3-1.88,0.5c0.3,0.18,0.4,0.26,0.51,0.3c4.77,2.03,9.74,2.95,14.91,2.48
		c5.41-0.49,10.03-2.77,13.92-6.5c3.7-3.55,6.48-7.76,8.69-12.35c3.11-6.44,4.8-13.3,6.01-20.29c0.13-0.76-0.08-1.07-0.92-1.15
		c-2.6-0.28-5.19-0.61-7.79-0.75c-3.91-0.21-7.83-0.07-11.72,0.51c-3.89,0.57-7.7,1.44-11.31,3c-5.81,2.51-10.33,6.43-13.18,12.15
		c-2.49,5.01-3.24,10.36-2.92,15.9c0.02,0.53,0.1,1.06,0.16,1.58c0.06,0.01,0.12,0.02,0.2,0.04c2.56-4.68,5.26-9.26,9.36-12.79
		c-1.44,2.19-2.97,4.34-4.36,6.56c-1.42,2.28-2.52,4.72-3.45,7.33C225.56,184.39,225.59,184.39,225.62,184.39 M349.58,291.09
		c0-1.86,0.01-3.72,0.01-5.58c0-0.32,0.03-0.65,0-0.98c-0.07-0.82-0.42-1.16-1.25-1.21c-0.29-0.02-0.58-0.01-0.88-0.01
		c-2.31,0.01-4.63,0.01-6.95,0.01c-0.32,0-0.66-0.02-0.98,0c-0.73,0.06-1.06,0.35-1.16,1.07c-0.06,0.45-0.05,0.91-0.05,1.37
		c0,18,0,35.99,0.01,53.99c0,2.87-0.01,5.74-0.01,8.62c0,1.57,0.32,1.87,1.92,1.83c0.03,0,0.06,0,0.1,0
		c2.35,0.01,4.7,0.02,7.05,0.02c0.29,0,0.59,0.01,0.88-0.02c0.75-0.09,1.11-0.4,1.26-1.15c0.09-0.44,0.09-0.91,0.09-1.36
		c0-9.48-0.01-18.95-0.01-28.42c0-3.82-0.04-7.64,0.07-11.46c0.14-5.24,2.31-9.39,6.95-12.04c3.27-1.87,6.81-2.41,10.51-1.94
		c1.92,0.25,3.75,0.84,5.5,1.69c1.36,0.67,1.69,0.53,2.3-0.89c0.49-1.14,0.96-2.29,1.46-3.42c0.65-1.47,1.34-2.9,1.99-4.37
		c0.47-1.07,0.32-1.55-0.72-2.06c-0.67-0.34-1.36-0.63-2.08-0.87c-3.88-1.32-7.87-1.56-11.89-0.92c-4.63,0.75-8.62,2.74-11.71,6.36
		c-0.7,0.82-1.43,1.6-2.31,2.58C349.62,291.52,349.58,291.31,349.58,291.09 M307.13,290.86c0.01-2.06,0.02-4.11,0.02-6.17
		c0-1.05-0.3-1.36-1.33-1.37c-2.74-0.02-5.49-0.02-8.23-0.01c-1.11,0-1.45,0.35-1.54,1.46c-0.01,0.19-0.01,0.38-0.01,0.58
		c0.01,9.34,0.04,18.69,0.04,28.03c0,11.6-0.02,23.19-0.04,34.78c0,1.88,0.22,2.08,2.07,2.06c2.32-0.02,4.64,0,6.96,0
		c0.16,0,0.32,0.01,0.49,0.01c1.15-0.02,1.53-0.38,1.61-1.51c0.02-0.53,0.01-1.05,0.01-1.57c-0.01-11.07-0.04-22.14-0.01-33.21
		c0-2.6,0.05-5.23,0.36-7.82c0.67-5.48,3.55-9.42,8.79-11.35c4.2-1.55,8.46-1.47,12.65,0.15c0.94,0.37,1.84,0.82,2.81,1.26
		c0.14-0.28,0.28-0.53,0.4-0.79c1.26-2.8,2.51-5.6,3.77-8.4c0.58-1.3,0.45-1.68-0.84-2.3c-0.61-0.3-1.25-0.56-1.9-0.78
		c-3.92-1.31-7.93-1.54-11.99-0.89c-4.61,0.74-8.54,2.77-11.6,6.36c-0.59,0.69-1.22,1.36-1.84,2.04c-0.15,0.15-0.32,0.27-0.6,0.51
		C307.16,291.49,307.13,291.18,307.13,290.86 M257.73,244.28c-0.09,2.16-0.01,4.31,0.39,6.45c1.28,6.86,4.92,11.99,11.21,15.14
		c2.75,1.38,5.68,2.31,8.7,2.94c7.12,1.48,14.23,1.05,21.35,0.01c0.69-0.1,0.79-0.29,0.72-1.01c-0.02-0.17-0.05-0.32-0.08-0.48
		c-0.9-4.36-2.12-8.63-3.96-12.7c-1.82-4.04-4.05-7.83-7.13-11.07c-3.78-3.98-8.37-6.4-13.87-6.98c-4.83-0.5-9.42,0.47-13.83,2.38
		c-0.06,0.03-0.09,0.14-0.16,0.25c4.54,0.83,9,1.77,12.96,4.21c-4.31-1.51-8.7-2.56-13.33-2.64c0.04,0.16,0.04,0.2,0.06,0.22
		c0.01,0.02,0.04,0.06,0.06,0.07c5.83,4.19,11.67,8.38,17.5,12.58c0.05,0.03,0.11,0.07,0.16,0.11c0.05,0.04,0.09,0.09,0.14,0.13
		c0.02,0.02,0.05,0.05,0.06,0.08c0.01,0.02,0.01,0.06,0,0.09c0,0.03-0.02,0.06-0.09,0.25c-6.37-3.98-12.68-7.97-19.1-11.88
		c0.05,0.34,0.14,0.63,0.27,0.92c1.71,3.76,4.01,7.1,6.87,10.07c0.22,0.23,0.52,0.42,0.63,0.95c-4.1-2.89-6.65-6.89-9.45-10.73
		C257.78,243.87,257.74,244.07,257.73,244.28 M181.8,138.13c1.22-2.14,2.12-4.41,2.75-6.79c1.56-5.83,0.83-11.34-2.59-16.38
		c-2.34-3.47-5.42-6.17-8.9-8.45c-5.05-3.31-10.66-5.33-16.44-6.93c-0.91-0.26-1.18-0.08-1.45,0.79c-0.04,0.12-0.09,0.25-0.12,0.38
		c-1.05,3.98-1.86,8.01-2.12,12.14c-0.3,4.65-0.04,9.26,1.31,13.77c1.37,4.6,3.86,8.42,7.95,11.05c4.39,2.83,9.27,3.94,14.44,3.92
		c0.08,0,0.15-0.08,0.3-0.16c-2.36-1.74-4.57-3.55-6.59-5.59c2.42,1.4,4.68,3.02,7.3,4.08c-0.57-1.3-1.21-2.54-1.84-3.77
		c-0.64-1.25-1.29-2.5-1.92-3.75c-0.62-1.25-1.25-2.51-1.87-3.77c-0.61-1.22-1.24-2.43-1.72-3.71c0.06-0.02,0.12-0.06,0.18-0.09
		c2.96,4.74,5.92,9.48,8.88,14.23c0.09-0.03,0.17-0.05,0.26-0.07c0-1.24,0.03-2.47-0.01-3.7c-0.07-2.46-0.46-4.88-0.96-7.28
		c-0.05-0.26-0.04-0.52-0.06-0.77c0.09-0.01,0.18-0.02,0.27-0.03c1.54,3.65,2,7.55,2.51,11.51
		C181.51,138.56,181.67,138.36,181.8,138.13 M136.77,179.85c-1.12-2.21-2.32-4.38-3.88-6.33c-3.7-4.62-8.46-7.16-14.4-7.46
		c-3.73-0.17-7.35,0.42-10.91,1.48c-5.89,1.75-11.13,4.8-16.15,8.26c-0.75,0.51-0.78,0.82-0.21,1.63c2.31,3.29,4.81,6.44,7.67,9.26
		c3.5,3.45,7.39,6.34,11.92,8.26c5.66,2.4,11.3,2.43,16.86-0.32c3.05-1.51,5.64-3.63,7.97-6.1c0.15-0.16,0.26-0.34,0.54-0.69
		c-1.09,0.14-1.95,0.23-2.8,0.35c-2.04,0.28-4.08,0.57-6.15,0.45c-0.31-0.02-0.64-0.08-0.95-0.12c3.38-0.59,6.64-1.4,9.7-2.87
		c0-0.07,0-0.15-0.01-0.22l-16.85-3.63c0.32-0.15,0.61-0.16,0.9-0.12c3.05,0.35,6.1,0.71,9.15,1.03c1.98,0.21,3.96,0.35,5.95,0.51
		c0.27,0.02,0.53-0.05,1-0.09c-2.57-2.36-5.31-4.12-7.88-6.1c3.28,1.02,6,3.04,8.92,5.03C137.28,181.12,137.08,180.46,136.77,179.85
		 M235.74,141.65c2.1,0,4.16-0.35,6.2-0.82c6.67-1.55,11.51-5.36,14.25-11.71c1.42-3.27,2.08-6.72,2.3-10.26
		c0.35-5.73-0.5-11.33-1.83-16.88c-0.12-0.47-0.3-0.93-0.49-1.37c-0.27-0.64-0.79-0.96-1.48-0.89c-0.51,0.06-1.04,0.13-1.53,0.28
		c-4,1.24-7.9,2.72-11.61,4.67c-4.03,2.12-7.65,4.77-10.62,8.23c-3.15,3.66-4.77,7.89-4.8,12.73c-0.03,4.61,1.39,8.79,3.71,12.71
		c0.09,0.14,0.23,0.23,0.4,0.38c0.22-1.84,0.4-3.6,0.65-5.34c0.28-1.98,0.74-3.91,1.46-5.78c0.12-0.3,0.16-0.69,0.72-0.78
		c-1,4.03-1.62,8.02-1.06,12.11c2.98-4.54,5.82-9.15,8.81-13.65c-2.14,5.02-4.71,9.82-7.08,14.75c3.45-1.52,6.38-3.75,9.28-6.06
		c-2.08,3.21-5.35,5.12-8.42,7.58C235.12,141.6,235.43,141.65,235.74,141.65 M150.88,240.25c-2.68-1.36-5.43-2.58-8.37-3.25
		c-5.63-1.26-10.9-0.5-15.7,2.83c-3.6,2.5-6.39,5.75-8.72,9.42c-3.12,4.94-5.02,10.38-6.53,15.98c-0.26,0.94-0.08,1.18,0.9,1.46
		c3.94,1.13,7.96,1.8,12.04,2.09c4.56,0.32,9.07,0.11,13.5-1.12c3.56-0.98,6.76-2.62,9.32-5.33c4.46-4.74,6.24-10.44,5.97-16.87
		c-0.01-0.08-0.09-0.15-0.17-0.28c-0.19,0.24-0.34,0.44-0.49,0.65c-0.82,1.14-1.57,2.34-2.48,3.4c-1.17,1.35-2.47,2.6-3.73,3.87
		c-0.23,0.23-0.56,0.36-0.84,0.55c-0.04-0.05-0.08-0.11-0.12-0.17l1.57-1.85c1.73-2.05,3.29-4.21,4.49-6.63
		c0.16-0.3,0.27-0.62,0.48-1.13c-0.55,0.28-0.88,0.44-1.19,0.61c-4.53,2.39-9.07,4.79-13.6,7.18c-0.36,0.19-0.69,0.49-1.32,0.23
		c0.42-0.3,0.75-0.55,1.09-0.77c4.34-2.73,8.68-5.45,13.02-8.18c0.28-0.17,0.54-0.37,0.81-0.56c-1.98-0.36-3.87-0.33-5.74-0.14
		c-1.88,0.19-3.75,0.5-5.63,0.76c3.66-1.75,7.6-2.15,11.71-2.44C150.96,240.35,150.93,240.28,150.88,240.25 M275.04,187.44
		c0.1,0.13,0.18,0.26,0.28,0.38c1.72,1.98,3.64,3.73,5.84,5.18c5.93,3.88,12.18,4.52,18.75,1.85c3.27-1.32,6.24-3.11,9-5.3
		c4.36-3.46,7.91-7.68,11.18-12.14c0.54-0.74,0.5-0.94-0.29-1.5c-2.61-1.86-5.32-3.57-8.18-4.99c-5.03-2.52-10.27-4.38-15.95-4.69
		c-4.82-0.26-9.27,0.91-13.18,3.8c-4.02,2.96-6.6,6.98-8.36,11.58c-0.04,0.1-0.01,0.21-0.01,0.33c1.88-1.15,3.68-2.33,5.55-3.39
		c1.9-1.07,3.9-1.92,6.08-2.32c-0.28,0.21-0.6,0.37-0.91,0.52c-3.34,1.54-6.41,3.5-9.15,5.97c-0.24,0.22-0.59,0.38-0.64,0.85
		c3.1-0.43,6.13-0.85,9.17-1.28c3.78-0.53,7.56-1.07,11.34-1.59c0.22-0.04,0.45,0.02,0.67,0.03c0.01,0.09,0.01,0.17,0.01,0.26
		c-1.74,0.36-3.48,0.71-5.21,1.08c-1.76,0.37-3.52,0.74-5.27,1.1c-1.76,0.37-3.52,0.72-5.28,1.09c-1.71,0.37-3.45,0.64-5.14,1.19
		c4.2,1.99,8.63,2.89,13.21,3.16c-4.61,0.8-9.02-0.34-13.46-1.37C275.09,187.31,275.06,187.38,275.04,187.44 M286.72,142.18
		c-0.49,0.34-0.96,0.7-1.47,1.02c-2.18,1.34-4.59,2.18-7.01,2.97c-0.35,0.12-0.69,0.25-1.21,0.44c0.42,0.16,0.63,0.25,0.84,0.32
		c2.48,0.79,5.02,1.15,7.62,1.01c3.99-0.22,7.4-1.75,10.21-4.58c2.11-2.14,3.66-4.67,4.92-7.38c1.63-3.49,2.56-7.18,3.15-10.98
		c0.21-1.35,0.37-2.71,0.53-4.08c0.09-0.78-0.04-0.92-0.82-1c-0.16-0.02-0.32-0.03-0.49-0.03c-2.22-0.01-4.45-0.11-6.66,0.01
		c-4.14,0.22-8.16,1.05-11.96,2.75c-4.81,2.16-8.19,5.64-9.71,10.77c-0.93,3.16-0.94,6.37-0.44,9.6c0.01,0.09,0.07,0.17,0.13,0.32
		c0.85-1.63,1.58-3.11,2.39-4.57c0.8-1.43,1.76-2.79,3.01-3.9c-1.79,2.81-3.31,5.73-4.19,9.03c0.17-0.03,0.22-0.02,0.24-0.04
		c4.28-3.48,8.56-6.96,12.84-10.44c0.07-0.06,0.16-0.12,0.24-0.17c0.02-0.01,0.05-0.02,0.08-0.03c0.04,0,0.07-0.01,0.1,0
		c0.02,0.01,0.05,0.03,0.16,0.11c-0.69,0.65-1.37,1.28-2.06,1.92c-0.72,0.67-1.43,1.33-2.16,2c-0.69,0.64-1.38,1.29-2.08,1.93
		c-0.71,0.67-1.43,1.33-2.15,1.99c-0.7,0.65-1.4,1.28-2.08,1.94c-0.68,0.65-1.42,1.26-2,2.01c3.56-0.31,6.79-1.52,9.9-3.16
		C286.65,142.05,286.69,142.12,286.72,142.18 M137.25,142.91c0.09-0.48,0.17-0.96,0.23-1.45c0.41-3.64,0.05-7.18-1.68-10.48
		c-2.01-3.84-5.22-6.27-9.22-7.76c-5.17-1.93-10.54-2.38-16.01-2.08c-0.68,0.04-1.37,0.07-2.05,0.15c-0.79,0.1-1.01,0.37-1,1.16
		c0,0.22,0.03,0.45,0.05,0.68c0.28,2.63,0.72,5.24,1.38,7.81c1.03,3.99,2.61,7.73,5.09,11.04c2.3,3.08,5.31,5.08,9.07,5.92
		c3.76,0.84,7.39,0.33,10.94-1.07c0.11-0.04,0.19-0.13,0.38-0.27c-2.17-0.74-4.24-1.47-6.2-2.48c2.16,0.44,4.26,1.14,6.46,1.26
		c0.04-0.06,0.07-0.12,0.11-0.2c-2.46-2.22-4.92-4.45-7.37-6.68l0.15-0.17c2.77,1.78,5.41,3.77,8.26,5.85
		c-0.44-2.29-1.37-4.17-1.91-6.17c1.34,1.62,2.15,3.54,3.21,5.4C137.18,143.22,137.23,143.06,137.25,142.91 M112.16,211.03
		c-5.11-2.5-10.17-2.52-15.16,0.35c-2.25,1.29-4.28,2.87-6.09,4.73c-3.17,3.27-5.5,7.11-7.6,11.11c-0.41,0.78-0.32,1.06,0.52,1.46
		c1.47,0.7,2.95,1.41,4.46,2.03c4.66,1.94,9.49,3.05,14.59,2.85c2.69-0.1,5.23-0.75,7.53-2.16c4.37-2.68,7.22-6.44,8.08-11.57
		c0.05-0.33,0.16-0.67-0.04-1.06c-0.81,0.63-1.55,1.22-2.3,1.79c-0.75,0.57-1.49,1.16-2.35,1.57c1.26-1.44,2.72-2.68,3.63-4.46
		l-11.62,3.3c-0.02-0.06-0.04-0.13-0.07-0.2c3.78-1.5,7.55-3,11.44-4.55c-0.98-0.5-1.94-0.64-2.89-0.81
		c-0.96-0.17-1.94-0.26-2.92-0.35c-0.94-0.07-1.87-0.11-2.81-0.17c2.72-0.84,5.5-0.38,8.28-0.63
		C115.42,212.91,113.87,211.87,112.16,211.03 M206.64,110.62c0.36-0.14,0.73-0.28,1.09-0.45c2.79-1.37,4.83-3.53,6.35-6.2
		c1.98-3.5,2.82-7.23,2.06-11.22c-0.41-2.17-1.11-4.24-2.02-6.23c-2.03-4.42-4.97-8.19-8.24-11.73c-0.65-0.71-0.99-0.69-1.8,0.09
		c-2.52,2.42-4.85,5.01-6.81,7.94c-1.79,2.67-3.3,5.48-4.13,8.62c-0.98,3.71-0.88,7.37,0.69,10.91c1.65,3.72,4.45,6.4,7.89,8.46
		c0.05,0.03,0.16-0.01,0.32-0.04c-0.4-0.95-0.83-1.82-1.15-2.74c-0.39-1.1-0.72-2.23-1.05-3.36c-0.07-0.24,0-0.52,0-0.79
		c0.08-0.02,0.16-0.04,0.24-0.05c0.9,2.16,1.52,4.48,3.27,6.46c0.07-0.95,0.14-1.69,0.19-2.42c0.05-0.75,0.07-1.5,0.11-2.25
		c0.05-0.75,0.1-1.5,0.15-2.25c0.05-0.71,0.1-1.43,0.14-2.15c0.04-0.75,0.06-1.5,0.11-2.25c0.04-0.75,0.08-1.51,0.16-2.25
		c0.07-0.7-0.09-1.45,0.4-2.1c0.12,2.59,0.12,5.19,0.12,7.77v7.78c0.07,0.02,0.15,0.03,0.23,0.05c1.51-1.69,2.29-3.85,3.51-5.73
		c-0.2,2.21-1.42,4.04-2.22,6.13C206.46,110.62,206.56,110.64,206.64,110.62 M294.97,226.14c2.31,3.76,5.61,6.13,9.94,7.03
		c3.3,0.68,6.62,0.61,9.94,0.07c4.29-0.69,8.31-2.21,12.25-4c0.82-0.37,0.85-0.47,0.43-1.35c-1.52-3.19-3.33-6.21-5.55-8.98
		c-1.93-2.41-4.08-4.59-6.65-6.32c-3.64-2.45-7.63-3.5-12-2.74c-3.4,0.58-6.35,2.14-9.03,4.26c-0.2,0.15-0.37,0.33-0.73,0.66
		c3.55-0.27,6.85-0.56,10.09,0.44c-3.32-0.25-6.58-0.05-9.84,0.82c0.08,0.14,0.08,0.18,0.11,0.19l15.15,5.87
		c0.1,0.03,0.18,0.08,0.26,0.14c0.01,0.01,0.02,0.05,0.02,0.08c0,0.03-0.02,0.06-0.08,0.18c-5.31-1.66-10.64-3.31-15.97-4.97
		c-0.03,0.06-0.06,0.13-0.09,0.19c2.11,2.8,4.72,5.06,7.66,6.98c-3.37-1.19-5.89-3.61-8.57-5.86
		C292.7,221.47,293.59,223.89,294.97,226.14 M205.67,189.98c-5.89-0.01-10.74,4.8-10.77,10.68c-0.04,5.94,4.78,10.71,10.81,10.72
		c6.05,0.01,10.67-4.6,10.69-10.65C216.4,194.69,211.71,189.99,205.67,189.98 M70.72,198.91c0.76,0.67,1.51,1.37,2.31,1.98
		c1.33,0.99,2.65,2,4.06,2.89c3.23,2.03,6.66,2.09,10.14,0.71c2.54-1,4.52-2.68,5.82-5.13c0.44-0.83,0.44-1.58,0.03-2.41
		c-0.51-1.04-1.1-2-1.93-2.81c-3.47-3.37-7.5-4.27-12.08-2.64c-3.37,1.2-6.08,3.39-8.64,5.78c-0.19,0.17-0.32,0.41-0.56,0.75
		C70.2,198.35,70.44,198.65,70.72,198.91 M332.01,204.81c3.59-1.32,6.35-3.82,9.05-6.4c0.42-0.39,0.37-0.7-0.12-1.17
		c-0.72-0.67-1.45-1.32-2.21-1.94c-1.93-1.58-4.02-2.9-6.37-3.78c-2.25-0.84-4.56-1.15-6.92-0.56c-3.53,0.89-5.78,3.26-7.29,6.45
		c-0.26,0.54-0.22,1.06,0.01,1.61c0.43,1,1.04,1.89,1.8,2.65c2.4,2.39,5.31,3.61,8.68,3.71
		C329.82,205.44,330.93,205.2,332.01,204.81 M97.4,257.45c3.67-0.98,6.15-3.26,7.14-6.95c0.4-1.47,0.48-3.03,0.68-4.53
		c0.1-0.7-0.22-1.18-0.83-1.53c-1.6-0.92-3.26-1.66-5.08-2c-3.04-0.57-5.78,0.11-8.13,2.13c-0.74,0.64-1.43,1.36-2.04,2.11
		c-2.16,2.66-3.4,5.78-4.36,9.02c-0.24,0.81,0.01,1.21,0.89,1.41c2.23,0.51,4.47,0.94,6.81,0.93
		C94.13,258.01,95.78,257.88,97.4,257.45 M325.51,257.16c1.1-0.25,1.34-0.69,0.99-1.78c-0.29-0.96-0.64-1.92-1.01-2.85
		c-1.04-2.59-2.32-5.04-4.31-7.05c-1.57-1.59-3.41-2.72-5.64-3.11c-3.22-0.55-6.04,0.5-8.7,2.19c-0.46,0.3-0.64,0.74-0.6,1.26
		c0.09,1.2,0.1,2.42,0.31,3.59c0.68,3.57,2.58,6.22,6.03,7.61c1.98,0.8,4.05,0.98,6.35,1.01
		C321.04,258.08,323.28,257.67,325.51,257.16 M286.4,91.64c-0.14-0.94-0.41-1.1-1.35-0.91c-3.19,0.67-6.21,1.77-8.96,3.54
		c-1.3,0.84-2.46,1.84-3.37,3.1c-1.99,2.76-2.24,5.78-1.33,8.96c0.3,1.03,0.72,2.03,1.2,2.99c0.4,0.81,1.11,1.27,2.08,1.19
		c1.01-0.09,2.02-0.12,3.03-0.26c4.24-0.6,7.13-2.85,8.45-7c0.62-1.95,0.9-3.94,0.98-6C286.88,95.39,286.67,93.52,286.4,91.64
		 M137.49,110.42c0.48-0.02,0.89-0.21,1.13-0.65c1.53-2.85,2.26-5.84,1.55-9.07c-0.54-2.46-2.03-4.25-3.99-5.73
		c-2.95-2.24-6.35-3.42-9.9-4.26c-0.13-0.02-0.27-0.02-0.39-0.04c-0.46-0.04-0.77,0.14-0.86,0.61c-0.11,0.54-0.21,1.08-0.29,1.64
		c-0.46,3.05-0.53,6.12,0.12,9.15c0.75,3.54,2.69,6.18,6.17,7.52c1.61,0.62,3.27,0.85,4.99,0.83
		C136.51,110.42,137,110.44,137.49,110.42 M80.59,142c-0.83,0.35-0.97,0.68-0.61,1.45c1.4,2.97,3.06,5.78,5.45,8.08
		c1.43,1.38,3.05,2.47,4.97,3.03c4.02,1.15,7.45-0.09,10.5-2.72c0.51-0.44,0.71-1.01,0.66-1.66c-0.27-3.58-1.62-6.57-4.69-8.62
		c-1.99-1.33-4.23-1.84-6.43-1.74C86.86,139.77,83.68,140.71,80.59,142 M321.91,139.8c-0.68,0.04-1.37,0.04-2.06,0.12
		c-0.64,0.07-1.28,0.2-1.92,0.36c-5.48,1.32-7.71,5.31-8.15,9.78c-0.07,0.74,0.16,1.32,0.76,1.79c1.28,1.02,2.65,1.9,4.2,2.47
		c3.19,1.16,6.23,0.85,9.07-1.03c1.24-0.82,2.32-1.79,3.3-2.91c1.8-2.06,3.11-4.42,4.28-6.87c0.4-0.84,0.29-1.18-0.61-1.51
		c-1.72-0.62-3.44-1.25-5.19-1.73c-1.18-0.32-2.43-0.41-3.65-0.6C321.92,139.72,321.92,139.76,321.91,139.8 M362,383.34
		c2.15,0,4.3,0.01,6.46,0c0.49,0,0.98-0.01,1.47-0.07c2.45-0.28,3.99-1.64,4.34-3.94c0.14-0.94,0.11-1.95,0-2.91
		c-0.16-1.37-0.9-2.42-2.14-3.1c-0.18-0.1-0.36-0.21-0.61-0.36c0.25-0.19,0.4-0.32,0.54-0.43c0.95-0.69,1.53-1.63,1.64-2.78
		c0.09-0.9,0.11-1.84-0.01-2.73c-0.23-1.73-1.21-2.94-2.91-3.45c-0.49-0.15-1.02-0.27-1.53-0.28c-2.58-0.05-5.16-0.06-7.73-0.08
		c-0.12,0-0.24,0.07-0.4,0.11v19.97C361.48,383.31,361.74,383.34,362,383.34 M363.3,374.28c0.09-0.07,0.14-0.14,0.19-0.14
		c1.8-0.01,3.58-0.04,5.38,0c0.51,0.01,1.03,0.17,1.52,0.37c1.33,0.53,1.87,1.64,1.81,3.56c-0.05,1.61-0.69,2.58-2.03,3.01
		c-0.43,0.15-0.89,0.24-1.34,0.25c-1.7,0.02-3.4,0.01-5.1,0.01c-0.12,0-0.25-0.04-0.42-0.08V374.28z M363.73,365.22
		c1.59,0,3.19-0.04,4.78,0.01c2.05,0.07,3.03,1.09,3.07,3.13c0.01,0.2,0.01,0.39,0,0.58c-0.08,2.05-1.15,3.12-3.19,3.17
		c-1.65,0.04-3.31,0-4.95,0c-0.24-0.73-0.29-5.76-0.07-6.83C363.48,365.26,363.6,365.22,363.73,365.22 M183.7,383.29h2.1v-8.97h9.76
		v8.96h2.08v-20c-0.7-0.1-1.36-0.18-2.05,0.06c-0.09,2.95,0.05,5.88-0.08,8.76c-1.59,0.22-8.97,0.14-9.72-0.1v-8.73h-2.09V383.29z
		 M282.37,383.27v-1.94h-9.34c-0.22-1.37-0.15-6.49,0.09-7.22c2.54-0.07,5.1,0.05,7.7-0.06c0-0.43,0.01-0.73,0-1.02
		c-0.01-0.28-0.04-0.56-0.07-0.9h-2.62c-0.88,0-1.76,0.01-2.64-0.01c-0.83-0.01-1.67,0.06-2.47-0.05c-0.2-1.63-0.13-6.14,0.12-6.9
		h9.26v-1.92h-11.56v20.02H282.37z M259.44,382.77c0-2.77,0.05-5.55-0.04-8.33c-0.03-1.16-0.24-2.34-0.54-3.47
		c-0.38-1.44-1.43-2.21-2.9-2.39c-1.45-0.18-2.87-0.05-4.24,0.48c-0.39,0.15-0.78,0.28-1.28,0.47v-7.03h-2.03v20.77h2.05v-11.83
		c1.3-0.71,2.78-1.03,4.23-0.93c1.48,0.09,2.21,0.71,2.43,2.19c0.12,0.84,0.19,1.69,0.2,2.54c0.02,2.31,0.01,4.63,0.01,6.95v1.1
		h2.04C259.41,383.08,259.44,382.93,259.44,382.77 M228.4,383.63c0.03-0.59,0.06-1.12,0.08-1.62c-1.52-0.6-1.58-0.68-1.58-2.17
		c0-2.05,0.01-4.11,0-6.17c0-0.64-0.04-1.3-0.14-1.94c-0.3-1.91-1.4-3.01-3.32-3.13c-1.29-0.09-2.61-0.01-3.9,0.1
		c-0.85,0.08-1.74,0.14-2.59,0.57c0.04,0.5,0.07,0.98,0.11,1.52c0.53-0.04,0.95-0.09,1.36-0.11c1.37-0.09,2.74-0.2,4.11-0.21
		c1.28-0.01,1.95,0.55,2.17,1.8c0.11,0.69,0.07,1.4,0.11,2.15c-1.5,0.15-2.87,0.26-4.22,0.46c-0.8,0.12-1.6,0.3-2.36,0.58
		c-1.02,0.38-1.61,1.18-1.87,2.24c-0.27,1.14-0.26,2.27,0.05,3.39c0.37,1.33,1.24,2.24,2.63,2.45c0.73,0.11,1.51,0.16,2.23,0.04
		c1.27-0.22,2.53-0.58,3.94-0.93C225.99,383.32,227.07,383.68,228.4,383.63 M224.73,380.88c-1.47,0.66-3.01,0.97-4.63,0.88
		c-0.52-0.03-0.95-0.25-1.26-0.66c-0.68-0.87-0.73-2.87-0.02-3.7c0.26-0.31,0.66-0.62,1.03-0.69c1.59-0.25,3.21-0.41,4.88-0.62
		V380.88z M396.36,374.87c-0.83,0.13-1.67,0.32-2.45,0.63c-0.93,0.36-1.49,1.12-1.74,2.11c-0.3,1.2-0.29,2.4,0.06,3.57
		c0.38,1.25,1.21,2.11,2.52,2.33c0.73,0.12,1.51,0.19,2.23,0.07c1.31-0.22,2.6-0.59,4-0.92c1.36,0.85,1.98,1.04,3.21,0.89
		c0.04-0.49,0.07-1,0.1-1.46c-0.11-0.1-0.15-0.14-0.21-0.17c-1.33-0.54-1.39-0.61-1.39-2c-0.01-2.06,0.01-4.12-0.01-6.17
		c0-0.69-0.03-1.38-0.14-2.05c-0.29-1.91-1.4-3-3.33-3.12c-1.33-0.08-2.67,0.03-4,0.12c-0.8,0.06-1.6,0.27-2.47,0.42
		c0.04,0.59,0.07,1.09,0.1,1.66c0.54-0.05,0.95-0.09,1.38-0.12c1.37-0.08,2.74-0.2,4.1-0.21c1.28-0.01,1.94,0.56,2.15,1.83
		c0.11,0.66,0.09,1.35,0.13,2.13C399.07,374.58,397.7,374.68,396.36,374.87 M396.13,381.78c-1.05-0.02-1.67-0.49-1.88-1.52
		c-0.12-0.62-0.14-1.3-0.05-1.94c0.14-0.98,0.79-1.57,1.77-1.7c1.48-0.19,2.97-0.33,4.53-0.5v4.78
		C399.11,381.52,397.66,381.82,396.13,381.78 M212.66,371.53c-0.69-1.79-2.03-2.75-3.92-2.95c-0.49-0.06-0.98-0.07-1.47-0.05
		c-2.64,0.12-4.26,1.39-4.95,3.94c-0.64,2.38-0.68,4.78-0.15,7.18c0.56,2.52,1.88,3.65,4.46,3.95c0.35,0.04,0.72,0.07,1.07,0.05
		c1.24-0.08,2.47-0.19,3.7-0.29c0.44-0.04,0.88-0.14,1.38-0.2c-0.04-0.6-0.07-1.1-0.1-1.67c-0.66,0.05-1.21,0.11-1.77,0.11
		c-1.47,0-2.93,0.01-4.39-0.07c-0.73-0.04-1.39-0.41-1.81-1.05c-0.7-1.05-0.78-2.22-0.69-3.51h9.06
		C213.36,375.08,213.33,373.27,212.66,371.53 M204.02,375.17c-0.09-1.32,0.07-2.53,0.84-3.57c0.93-1.26,2.29-1.38,3.71-1.17
		c1.33,0.2,2.07,1.06,2.32,2.33c0.16,0.75,0.2,1.53,0.32,2.41H204.02z M312.03,381.52c-0.45,0.02-0.84,0.04-1.22,0.05
		c-1.11,0.06-2.21,0.14-3.32,0.14c-0.65,0-1.31-0.08-1.94-0.23c-0.84-0.19-1.47-0.7-1.79-1.52c-0.36-0.92-0.49-1.87-0.36-2.96h9.01
		c0.26-1.31,0.21-2.5,0.04-3.71c-0.47-3.29-2.37-4.89-5.68-4.77c-0.11,0-0.21,0.01-0.3,0.01c-2.49,0.16-4.09,1.4-4.77,3.79
		c-0.68,2.39-0.72,4.85-0.2,7.28c0.55,2.59,1.94,3.76,4.6,4.03c0.32,0.03,0.66,0.05,0.98,0.03c1.63-0.11,3.25-0.24,4.95-0.38V381.52
		z M304.25,371.52c0.98-1.22,2.33-1.31,3.75-1.06c1.28,0.22,1.96,1.1,2.22,2.31c0.16,0.75,0.2,1.52,0.3,2.28
		c-0.84,0.23-6.15,0.26-7.2,0.05C303.31,373.83,303.42,372.57,304.25,371.52 M387.27,381.56c-1.11,0.06-2.22,0.14-3.32,0.14
		c-0.65,0-1.31-0.08-1.94-0.23c-0.84-0.19-1.47-0.7-1.79-1.52c-0.37-0.92-0.48-1.87-0.37-2.96h9.05c0.2-1.31,0.2-2.5,0.01-3.71
		c-0.55-3.45-2.47-4.98-5.98-4.76c-2.44,0.15-3.97,1.27-4.7,3.61c-0.83,2.68-0.84,5.41-0.1,8.12c0.5,1.84,1.76,2.93,3.65,3.25
		c2.26,0.39,4.47-0.04,6.72-0.31v-1.69C388.04,381.53,387.66,381.55,387.27,381.56 M380.49,371.82c0.36-0.62,0.89-1.04,1.58-1.25
		c0.85-0.26,1.72-0.29,2.6-0.06c0.85,0.22,1.44,0.73,1.78,1.53c0.41,0.98,0.53,2,0.43,3.12h-7.06
		C379.72,373.94,379.9,372.84,380.49,371.82 M474.2,363.27v20.02h2.09v-8.26h7.91v-1.98h-7.84v-7.84h9.26v-1.94H474.2z
		 M435.55,383.29c0.71,0.04,1.34,0.08,2.05,0.12c-0.6,2.18-1.16,4.23-1.74,6.35h2.09c1.92-6.98,3.83-13.92,5.75-20.93h-2.1
		c-1.16,4.19-2.32,8.36-3.47,12.5c-0.9,0.14-0.91,0.15-1.1-0.54c-0.93-3.34-1.83-6.67-2.75-10c-0.18-0.65-0.38-1.31-0.57-1.96h-2.08
		C432.97,373.74,434.26,378.51,435.55,383.29 M349.7,369.35c-0.67,2.42-1.34,4.84-2.01,7.26c-0.38,1.38-0.76,2.77-1.14,4.15
		c-0.1,0.36-0.15,0.7-0.65,0.7c-0.51,0-0.53-0.4-0.63-0.73c-0.01-0.02-0.02-0.06-0.03-0.09c-0.69-2.52-1.38-5.04-2.06-7.56
		c-0.39-1.41-0.78-2.82-1.2-4.3c-0.47,0-0.89,0-1.31,0c-0.22,0.01-0.45,0.04-0.77,0.07c1.32,4.85,2.62,9.66,3.92,14.44
		c0.72,0.04,1.32,0.06,2.04,0.1c-0.6,2.19-1.17,4.24-1.74,6.35h2.1c1.91-6.98,3.82-13.92,5.74-20.93h-2.05
		C349.81,369.05,349.74,369.19,349.7,369.35 M297.37,382.94c-0.02-3.2-0.01-6.39-0.1-9.59c-0.02-0.83-0.24-1.68-0.49-2.48
		c-0.43-1.38-1.45-2.12-2.89-2.28c-1.56-0.19-3.06,0-4.48,0.68c-0.29,0.13-0.57,0.26-0.92,0.42c-0.1-0.35-0.17-0.6-0.23-0.8h-1.88
		c-0.2,2-0.11,13.72,0.1,14.41c0.61,0,1.21,0,1.94,0v-1.11c0-3.27,0-6.53-0.01-9.79c0-0.47-0.01-0.89,0.53-1.12
		c1.35-0.59,2.73-0.9,4.19-0.73c0.82,0.08,1.4,0.52,1.69,1.29c0.15,0.42,0.29,0.88,0.33,1.32c0.1,0.94,0.16,1.88,0.17,2.83
		c0.02,2.12,0,4.24,0.01,6.36c0,0.31,0.02,0.63,0.03,0.96h1.92C297.32,383.12,297.37,383.03,297.37,382.94 M407.21,369.19
		c0.03,3.26,0.02,6.53,0.1,9.79c0.02,0.86,0.29,1.73,0.56,2.57c0.25,0.8,0.81,1.44,1.63,1.72c0.61,0.21,1.26,0.34,1.9,0.38
		c1.51,0.11,2.9-0.31,4.22-1.05c0.07-0.03,0.17-0.03,0.3-0.05c0.06,0.26,0.13,0.49,0.2,0.74h1.85c0.22-1.2,0.17-13.77-0.04-14.43
		h-1.91v3.29v7.73c0,0.36,0.05,0.72-0.38,0.91c-1.38,0.65-2.8,1.06-4.36,0.82c-0.82-0.14-1.36-0.61-1.6-1.4
		c-0.12-0.41-0.22-0.82-0.25-1.24c-0.08-0.95-0.14-1.89-0.15-2.84c-0.02-2.09,0-4.17-0.01-6.27c0-0.35-0.04-0.69-0.06-1.05h-1.91
		C407.26,369,407.21,369.09,407.21,369.19 M238.78,372.03c0.03,2.64,0.03,5.29,0.1,7.92c0.02,0.67,0.2,1.36,0.41,2
		c0.27,0.83,0.89,1.34,1.74,1.56c1.46,0.37,2.89,0.09,4.41-0.15c-0.05-0.63-0.09-1.17-0.12-1.77c-0.3,0-0.52-0.01-0.74,0
		c-0.55,0.04-1.11,0.11-1.66,0.12c-1.15,0.02-1.69-0.4-1.92-1.53c-0.07-0.38-0.11-0.78-0.11-1.16c-0.01-2.54-0.02-5.09-0.02-7.63
		c0-0.19,0.04-0.37,0.06-0.62c1.45-0.15,2.88,0.05,4.28-0.11v-1.9h-4.36v-4.38h-2.06v4.36c-0.7,0.04-1.27,0.07-1.93,0.11
		c-0.01,0.64-0.17,1.23,0.12,1.83c0.57,0.02,1.12,0.05,1.81,0.09C238.78,371.25,238.78,371.64,238.78,372.03 M423.36,371.92
		c0,2.25-0.04,4.51,0.02,6.75c0.03,1.04,0.18,2.08,0.42,3.1c0.24,0.99,0.97,1.58,1.99,1.79c1.41,0.29,2.78,0.04,4.23-0.21
		c-0.04-0.62-0.07-1.16-0.11-1.77c-0.3,0-0.52-0.01-0.74,0c-0.59,0.04-1.17,0.12-1.76,0.12c-1.07,0-1.63-0.46-1.83-1.51
		c-0.09-0.45-0.1-0.91-0.11-1.36c-0.01-2.48-0.01-4.96-0.01-7.45c0-0.21,0.06-0.42,0.1-0.65c1.45-0.08,2.84,0.04,4.2-0.07v-1.92
		h-4.25c-0.13-1.52,0.04-2.95-0.11-4.36h-2.04v4.36c-0.71,0.04-1.32,0.07-1.91,0.1v1.81c0.62,0.04,1.2,0.07,1.92,0.11V371.92z
		 M455.03,372.32v-9.04h-2.07c-0.2,1.97-0.12,19.32,0.09,19.99h10.36v-1.92h-8.37V372.32z M468.85,363.29h-2.06v19.99h2.06V363.29z
		 M233.75,362.51h-1.94c-0.21,1.11-0.16,20.07,0.04,20.79h1.9V362.51z M318.48,382.19v-7.92c0-1.68-0.01-1.7,1.52-2.35
		c1.13-0.48,2.31-0.87,3.49-1.31v-2.13c-0.65,0.19-1.21,0.32-1.75,0.53c-0.58,0.22-1.14,0.49-1.69,0.76
		c-0.5,0.25-0.98,0.54-1.54,0.85c-0.04-0.69-0.06-1.24-0.1-1.83c-0.56,0-1.01,0-1.46,0c-0.16,0.01-0.31,0.05-0.52,0.08v14.41h2.05
		V382.19z M356.28,383.27c0.04-1.11,0.1-2.15-0.01-3.17h-2.22v3.17H356.28z M445.88,383.26h2.14v-3.16h-2.14V383.26z M263.77,383.27
		h2.16v-3.19h-2.16V383.27z M502.08,262.68c0,6.37-5.16,11.54-11.54,11.54c-6.37,0-11.54-5.17-11.54-11.54
		c0-6.37,5.16-11.54,11.54-11.54C496.92,251.13,502.08,256.3,502.08,262.68 M500.38,262.68c0-5.43-4.4-9.84-9.83-9.84
		c-5.43,0-9.83,4.41-9.83,9.84c0,5.43,4.4,9.83,9.83,9.83C495.98,272.51,500.38,268.1,500.38,262.68 M492.89,266.23
		c-0.59,0.49-1.31,0.73-2.16,0.73c-0.69,0-1.34-0.18-1.94-0.53c-0.6-0.36-1.04-0.9-1.32-1.63c-0.28-0.73-0.42-1.58-0.42-2.55
		c0-0.75,0.12-1.48,0.35-2.19c0.25-0.72,0.66-1.28,1.25-1.7c0.6-0.42,1.33-0.63,2.21-0.63c0.77,0,1.4,0.19,1.91,0.57
		c0.5,0.38,0.89,0.99,1.15,1.82l1.49-0.35c-0.31-1.06-0.85-1.88-1.63-2.46c-0.78-0.58-1.74-0.88-2.88-0.88
		c-1.01,0-1.94,0.24-2.78,0.69c-0.84,0.46-1.49,1.14-1.95,2.03c-0.45,0.89-0.68,1.93-0.68,3.12c0,1.09,0.2,2.12,0.6,3.06
		c0.41,0.96,0.99,1.68,1.76,2.19c0.78,0.5,1.78,0.75,3.01,0.75c1.19,0,2.2-0.32,3.03-0.98c0.82-0.65,1.39-1.6,1.72-2.84l-1.52-0.38
		C493.87,265.02,493.48,265.74,492.89,266.23"/>
</g>
</svg>
