<?xml version="1.0" encoding="utf-8"?>
<!-- Generator: Adobe Illustrator 25.0.0, SVG Export Plug-In . SVG Version: 6.00 Build 0)  -->
<svg version="1.0" id="Layer_1" xmlns="http://www.w3.org/2000/svg" xmlns:xlink="http://www.w3.org/1999/xlink" x="0px" y="0px"
	 viewBox="0 0 571.97 459.86" style="enable-background:new 0 0 571.97 459.86;" xml:space="preserve">
<style type="text/css">
	.st0{fill:#ADADAD;}
</style>
<g>
	<path class="st0" d="M217.2,167.83c0.65-2.42,1.19-4.07,1.62-4.95c-7.22,5.59-12.68,10.6-16.37,15.05
		c-2.55,3.07-3.82,5.21-3.82,6.42c0,4.94,2.51,8.45,7.55,10.54c2.09,0.85,3.66,1.45,4.7,1.81h-14.75h-0.24l-10.44-18.03l0.15-5.93
		l-8.43,6.71c-4.64,3.69-6.96,6.66-6.96,8.92c0,1.96,1.18,4.45,3.53,7.45c2.35,3.01,3.53,5.25,3.53,6.71
		c0,2.68-3.05,6.32-9.16,10.93c-6.54,4.97-12.55,7.45-18.03,7.45c-3.46,0-10.29-1.78-20.49-5.34c-9.31-3.24-13.97-4.74-13.97-4.51
		c0,0.75,5.33,3.3,15.98,7.65c10.45,4.28,16.33,6.42,17.64,6.42c4.64,0,12.58-4.12,23.82-12.35c1.99-1.47,4.47-3.58,7.45-6.32
		c3.85-3.56,5.78-5.86,5.78-6.91c0-1.47-0.44-2.76-1.32-3.87c-3.3-4.22-4.97-6.34-5-6.37c-0.95-1.27-1.42-2.35-1.42-3.24
		c0-1.47,0.77-2.2,2.3-2.2c1.86,0,4.12,2.39,6.76,7.15c2.61,4.97,4.54,8.71,5.78,11.23h4.41h34.74L217.2,167.83z M215.73,190.82
		c-0.72,0.72-1.57,1.08-2.55,1.08c-2.48,0-3.73-1.21-3.73-3.63c0-2.38,1.24-3.58,3.73-3.58c0.98,0,1.83,0.35,2.55,1.05
		c0.72,0.71,1.08,1.55,1.08,2.52C216.81,189.25,216.45,190.1,215.73,190.82"/>
	<path class="st0" d="M258.76,205.86c2.58-1.37,3.87-2.48,3.87-3.34c0-0.1-0.07-0.16-0.2-0.19c-0.1,0-1.24,0.45-3.43,1.35
		c-2.19,0.9-3.95,1.35-5.29,1.35c-3.47,0-5.7-1.37-6.71-4.12c-0.46-1.27-0.69-3.51-0.69-6.71v-66.11l-12.89,10.73
		c2.25,1.08,3.74,2.55,4.46,4.41c0.46,1.24,0.69,3.25,0.69,6.03v44.94c0,3.95,0.86,7.19,2.6,9.7c2.03,2.84,4.93,4.26,8.72,4.26
		C252.86,208.17,255.81,207.4,258.76,205.86"/>
	<path class="st0" d="M322.86,152.84c0.95,1.05,1.42,2.16,1.42,3.34v40.53h-4.61h-1.81h-15.34c4.74-4.87,8.82-9.15,12.25-12.84
		c-3.56-2.88-6.11-4.98-7.64-6.32c-3.46-3-6.37-5.62-8.72-7.84c-3.95,3.69-6.86,6.31-8.72,7.84l-7.65,6.32
		c6.89,7.51,10.94,11.79,12.15,12.84h-12.55h-2.1h-1.62c-5.16-7.55-8.3-12.73-9.41-15.54c-0.43-1.01-0.64-1.78-0.64-2.3
		c0,0.13,0.37-1.18,1.13-3.92c-3.85,2.58-6.37,4.35-7.55,5.3c-1.93,1.63-2.89,3.05-2.89,4.26c0,0.56,0.16,1.11,0.49,1.66
		c6.01,10.46,9.02,16.45,9.02,17.99c0,2.51-2.84,5.99-8.53,10.44c-5.06,3.89-23.74,18.27-26.29,20.2c-0.95,0.94-1.42,1.84-1.42,2.69
		c7.74-5.62,28.38-21.28,32.17-24.02c6.47-4.67,10.6-8.41,12.4-11.22h3.14h2.1H296l2.69-3.09l2.89,3.09h16.27h1.81h12.2v-62.92
		l-11.81,11.03C321.7,151.74,322.63,152.58,322.86,152.84 M298.4,193.32l-3.92-4.41c1.34-2.55,2.65-3.82,3.92-3.82
		c1.34,0,2.64,1.1,3.92,3.28L298.4,193.32z"/>
	<path class="st0" d="M363.19,202.34c-0.1,0-1.24,0.45-3.43,1.35c-2.19,0.89-3.95,1.35-5.29,1.35c-3.47,0-5.7-1.37-6.71-4.12
		c-0.46-1.27-0.69-3.51-0.69-6.71v-66.11l-12.89,10.73c2.25,1.08,3.74,2.55,4.46,4.41c0.45,1.24,0.68,3.25,0.68,6.02v44.94
		c0,3.95,0.86,7.19,2.6,9.71c2.03,2.84,4.93,4.26,8.72,4.26c2.97,0,5.93-0.77,8.87-2.3c2.58-1.37,3.87-2.48,3.87-3.34
		C363.39,202.43,363.32,202.37,363.19,202.34"/>
	<path class="st0" d="M423.09,175.82c0-1.67,0.62-3.63,1.86-5.88c-2.58,1.21-5.05,2.77-7.4,4.7c-2.94,2.38-4.41,4.39-4.41,6.03
		c0,1.4,1,4.11,3.02,8.11c2.01,4,3.01,6.64,3.01,7.92h-10.73c-1.31-0.26-3.02-2.79-5.15-7.6l-5.44-13.67
		c-0.46-1.14-0.24-3.09,0.64-5.83c-7.45,6.14-12,9.93-13.67,11.37c-4.8,4.15-7.2,7.22-7.2,9.21c0,2.94,1.86,5.88,5.59,8.82
		c-4.05,5.62-8.82,9.28-14.31,10.98c-3.07,0.92-5.82,1.38-8.23,1.38c-1.14,0-2.27-0.1-3.38-0.29l-1.66-0.3
		c-0.26,0-0.39,0.1-0.39,0.3c0,0.59,2.01,1.16,6.03,1.72c3.46,0.46,6.27,0.68,8.43,0.68c2.06,0,3.59-0.17,4.61-0.49
		c2.38-0.78,4.56-2.48,6.52-5.1c0.52-0.72,1.99-3.17,4.41-7.35c1.5,0.95,2.42,1.52,2.74,1.72h46.95
		c-6.01-12.38-9.85-20.65-11.51-24.8C423.19,176.95,423.09,176.41,423.09,175.82 M389.67,193.42c-2.09-1.8-3.14-3.84-3.14-6.12
		c0-1.6,0.93-2.84,2.79-3.73c2.09,5.23,3.71,9.25,4.85,12.06C392.87,195.62,391.37,194.89,389.67,193.42"/>
	<path class="st0" d="M525.29,187.98c-2.88-4.15-6.73-6.22-11.56-6.22h-39.75c7.68-2.81,14.83-7.66,21.47-14.56
		c5.1-5.3,7.64-11.24,7.64-17.84c0-2.02-0.31-3.94-0.93-5.73c-1.86,4.96-3.37,8.44-4.51,10.44c-2.74,4.8-6.96,9.95-12.65,15.44
		c-4.51,4.38-10.06,8.3-16.66,11.76l-4.31,5.35h38.67c3.14,0,5.63,0.52,7.5,1.57c2.68,1.54,4.82,4.38,6.42,8.53h-51.45h-2.11h-1.62
		c-5.16-7.55-8.3-12.72-9.41-15.54c-0.43-1.01-0.64-1.78-0.64-2.3c0,0.13,0.37-1.18,1.13-3.92c-3.86,2.58-6.37,4.35-7.55,5.3
		c-1.93,1.63-2.89,3.05-2.89,4.26c0,0.56,0.17,1.11,0.49,1.67c6.01,10.45,9.02,16.45,9.02,17.98c0,2.51-2.84,5.99-8.53,10.44
		c-5.07,3.89-40.16,29.54-42.71,31.47c-0.95,0.94-1.42,1.84-1.42,2.69c7.74-5.62,44.8-32.55,48.59-35.3
		c6.47-4.67,10.6-8.41,12.4-11.22h3.14h2.11h66.21C528.96,195.15,526.93,190.4,525.29,187.98"/>
	<polygon class="st0" points="201.03,158.57 209.16,164.7 213.57,158.38 206.37,152.55 210.88,145.93 202.35,139.31 198.04,146.03 
		205.44,151.76 	"/>
	<polygon class="st0" points="421.77,214.1 414.86,208.95 411.33,214.39 418.24,219.49 421.67,214.59 428.48,219.39 432.01,214.2 
		425.2,208.95 	"/>
	<polygon class="st0" points="148.28,234.33 141.37,229.19 137.84,234.63 144.75,239.73 148.18,234.82 154.99,239.63 158.52,234.43 
		151.71,229.19 	"/>
	<path class="st0" d="M75.13,216.25c0.29,5.64,3.99,14.58,8.97,17.41c0.14,1.26,0.38,2.63,0.77,4.05c1.53,5.53,2.89,7.17,2.89,7.17
		s-1.6-6.59-1.36-16.56c1.34-12.86,4.83-25.43,10.34-37.06c-4.36,9.2-6.76,20.03-7.69,30.21c-0.97,10.65,0.17,21.56,3.4,31.98
		c-0.13-5.74-0.27-11.48-0.4-17.22c-0.01-0.22-0.01-0.43-0.02-0.65c-0.01-0.36-0.01-0.74,0.03-1.1c1.65-0.88,5.96-3.36,8.63-6.52
		c0,0-3.96,2.67-6.64,3.83c0.18-0.13,0.37-0.25,0.55-0.38c4.67-3.15,8.39-8,10.05-13.29c0.89-2.83,1.61-5.71,2.17-8.62
		c-1.13,2.13-2.4,4.22-3.89,5.98c-2.04,2.4-4.83,3.7-7.29,5.55c9.9-7.43,13.07-18.43,12.52-30.17c-1.45,3.58-3.69,6.83-6.53,9.5
		c4.61-5.52,13.1-35.73,31.17-49.13c-13.05,3.37-26.39,10.76-36.81,21.1c-2.54,3.36-4.06,7.3-4.22,11.7
		c-0.56-2.5-0.43-5.16,0.38-7.59c-0.26,0.31-0.52,0.61-0.79,0.92c-0.74,1.04-1.45,2.1-2.12,3.17l-0.06-0.44
		c-5.54,7.3-9.64,15.67-11.51,24.84c-0.15,0.73,0.19,2.98,2.36,7.21c-0.23-0.44-1.44-1.79-3.05-6.48c-0.47,2.63,0.11,5.89,1.26,7.64
		c-0.97-0.84-1.46-1.76-2.48-3.31c0.46,6.11,1.8,10.83,4.99,16.25C78.42,224.91,75.99,218.68,75.13,216.25"/>
	<path class="st0" d="M230.92,280.73c-0.11-0.53-0.44-0.99-0.91-1.29c-0.45-0.32-0.99-0.44-1.53-0.34c-0.56,0.1-1.05,0.43-1.37,0.91
		c-0.04,0.06-0.11,0.15-0.22,0.33c-2.21,3.27-4.36,6.16-6.4,8.57c-4.55,5.43-7.54,7.09-8.82,6.83c-0.22-0.04-0.47-0.14-0.77-0.26
		c-1.11-0.72-1.57-2.41-1.36-5c1.72-1.22,3.32-2.6,4.76-4.1c1.51-1.43,1.67-3.18,1.35-4.25c-0.23-0.77-0.71-1.27-1.3-1.37
		c-0.49-0.08-0.98,0.13-1.31,0.57l-0.02,0.03c-0.28,0.42-0.58,1-0.9,1.62c-0.49,0.94-1.04,2-1.54,2.55
		c-0.09,0.08-0.18,0.16-0.27,0.24c0.58-2.28,1.47-5.1,2.72-8.56c3.22-8.63,9.66-20.42,13.21-26.69c0.61-1.09,0.59-2.4-0.05-3.49
		c-0.63-1.08-1.74-1.72-2.98-1.72h-2.36c-0.86,0-1.69,0.49-2.14,1.25c-0.47,0.75-1.2,1.93-2.21,3.62c-1.24,1.8-3.27,4.65-5.89,8.03
		c-1.99,2.63-3.92,5.04-5.46,6.95c-0.09-0.28-0.18-0.55-0.27-0.81c-1.1-3.42-2.67-6.36-4.69-8.73c-3.2-3.84-7.5-5.97-12.76-6.33
		c-3.47-0.29-6.92,0.5-9.97,2.28c-2.79,1.61-5.32,4.04-7.32,7.03c-2.43,3.68-4.04,8.2-4.53,12.74c-0.49,4.83,0.29,9.45,2.26,13.39
		c1.74,3.35,4.28,6.06,7.55,8.05c0.67,0.4,1.27,0.73,1.84,1.01c-5.29,4.38-10.43,7.96-15.3,10.67c-2.68,1.51-7.49,2.13-8.4,2.17
		l-0.11-0.01c-0.36-0.03-0.6-0.17-0.78-0.44c-1.43-2.07,0.62-9.78,2.61-17.24c0.95-3.57,1.93-7.27,2.71-10.86
		c1.04-4.77,1.99-13.32-3.03-17.86c1.95-2.28,3.92-4.41,5.86-6.36c2.18-2.1,3.83-3.48,5.2-4.37c1.64-1.08,3.57-1.53,5.27-1.93
		c1-0.23,1.87-0.44,2.57-0.74c0.6-0.25,0.97-0.7,1.03-1.26c0.07-0.67-0.33-1.32-1.11-1.83c-1.73-1.13-5-1.42-8.43,0.48
		c-2.1,1.05-4.48,2.9-7.94,6.17l-0.02,0.02c-3.92,3.91-8.58,9.42-13.5,15.93c-4.06,5.44-8.13,11.21-12.38,17.55
		c0.14-0.43,0.28-0.84,0.41-1.25c0.74-2.4,1.49-4.97,2.22-7.46c1.28-4.38,2.61-8.91,3.99-12.98c5.78-1.97,9.73-4.28,12.43-7.25
		c0.19-0.2,1.22-1.34,2.02-2.94c0.02-0.03,0.03-0.07,0.04-0.09c0.56-1.3,0.84-2.55,0.84-3.68c0.03-1.79-0.47-3.23-1.49-4.27
		c-1.41-1.43-3.32-1.56-3.68-1.57c-0.79-0.07-9.08-0.55-14.74,10.93c-0.73,1.54-1.84,4.07-3.25,7.27l-0.11,0.26
		c-6.05,1.63-12.99,2.88-20.33,4.2l-1.41,0.26c-6.27,1.17-12.74,2.38-18.98,3.84c0.13-0.24,0.27-0.47,0.4-0.7
		c2.22-3.9,3.73-7.93,2.68-14.11l0.02,0.18c0.12,5.17-3.36,9.09-5.7,12.88c-0.59,0.96-1.16,1.88-1.68,2.81
		c-5.56,1.44-10.29,2.97-14.45,4.68c-13.57,5.51-21.59,13.16-24.53,23.37c-0.1,0.31-1.15,3.66-1.41,8.12
		c-0.45,6.2,0.64,11.65,3.14,15.77c2.92,4.78,7.77,7.92,14.44,9.37l0.08,0.01c1.42,0.18,2.76,0.25,3.95,0.25
		c3.09,0,5.24-0.47,5.68-0.61c0.3-0.1,0.6-0.23,0.86-0.38c0.28-0.15,0.56-0.34,0.83-0.57c0.45-0.31,0.82-0.76,0.92-0.89
		c0.71-0.81,0.94-1.51,1.18-2.26l0.1-0.31c0.6-1.88,0.76-3.74,0.84-5.47c0.12-3.4-0.14-6.71-0.37-9.64l-0.02-0.2
		c-0.06-0.73-0.12-1.44-0.18-2.13c-0.19-2.16-0.36-4.19-0.45-5.94c-0.13-2.28-0.1-4.1,0.07-5.3c0.12-0.88,0.3-1.33,0.37-1.48
		c0.01-0.01,0.01-0.02,0.01-0.03l0,0c0.03-0.07,0.08-0.15,0.13-0.23c0.04-0.07,0.08-0.1,0.1-0.13c0.15,0.02,0.54,0.13,1.07,0.44
		c0.4,0.22,0.84,0.51,1.34,0.85c0.38,0.25,0.82,0.55,1.31,0.85l0.09,0.05c0.53,0.31,1.2,0.7,2.13,0.92c0.71,0.15,1.41,0.1,2.01-0.14
		c0.63-0.25,1.19-0.73,1.6-1.37c0.56-0.91,0.75-1.76,0.91-2.65c0.12-0.72,0.2-1.49,0.24-2.44c0.06-1.79,0.03-3.4-0.11-4.92
		c-0.08-0.96-0.2-1.92-0.31-2.86c-0.08-0.68-0.17-1.39-0.24-2.08l-0.01-0.07c-0.61-3.43-0.34-6.38,0.9-9.49
		c7.5-1.87,15.58-3.35,22.72-4.65c6.12-1.09,12.56-2.3,18.32-3.7l-1.12,2.69c-4.17,9.99-9.87,23.66-15.1,35.31
		c-0.27,0.55-2.24,4.68-0.96,7.16c0.33,0.65,1.04,1.47,2.48,1.71c2.57,0.48,5-0.49,7.05-2.79l0.02-0.02c0.4-0.48,0.81-0.97,1.2-1.37
		c0.07-0.07,0.13-0.15,0.19-0.24c11.35-18.49,20.16-30.91,25.56-38.08c1.57-2.09,2.91-3.85,4.19-5.45c0.7,1.87,0.2,4.36-0.67,8.06
		c-0.4,1.82-1.3,4.49-2.34,7.58c-1.9,5.64-4.27,12.65-5.32,19.48c-1.21,7.84,2.18,10.54,3.87,11.38c0.26,0.21,0.6,0.3,0.8,0.35
		c1.22,0.45,2.42,0.62,3.21,0.68c0.04,0,1.08,0.09,1.88,0.09c0.27,0,0.42-0.01,0.69-0.03c0.09-0.01,0.49-0.1,0.68-0.17
		c0.09-0.03,0.43-0.11,0.76-0.19c1.78-0.43,5.49-1.31,8.54-2.93c5.27-2.79,10.76-6.72,17.79-12.73c2.02,0.53,4.2,0.85,6.66,0.98
		l0.04,0c0.03,0,0.09,0.01,0.16,0.01c0.29,0.02,0.82,0.06,1.53,0.06c1.28,0,3.89-0.1,7.14-0.76c2.07-0.46,4.09-1.12,6.19-2.01
		c1.33,3.48,3.75,4.95,5.12,5.53c1.07,0.44,1.98,0.63,2.52,0.67c0.24,0.07,0.46,0.07,0.66,0.07c3.23,0,6.99-2.65,11.82-8.35
		c3.22-3.79,5.84-7.72,6.81-9.23l0.06-0.08C230.92,281.83,231.03,281.27,230.92,280.73 M147.87,246.46l0.08-0.01
		c0,0,0.06-0.01,0.16-0.01c0.25,0,0.75,0.04,1.14,0.34c0.32,0.25,0.51,0.64,0.59,1.2c0.16,1.21-0.45,2.71-1.82,4.45
		c-0.06,0.08-0.11,0.14-0.14,0.18l-0.03,0.03c-1.71,1.88-4.36,3.56-8.09,5.12C142.59,250.29,145.25,246.58,147.87,246.46
		 M83.57,292.55c-0.04,0.8-0.1,1.43-0.19,1.98c-0.11,0.66-0.25,1.02-0.33,1.2c-0.23-0.07-0.56-0.24-0.97-0.49
		c-0.38-0.24-0.77-0.49-1.14-0.74c-0.52-0.35-1.07-0.71-1.62-1.02c-0.93-0.51-2.16-1.07-3.53-0.83c-0.82,0.15-1.39,0.57-1.65,0.8
		c-0.36,0.32-0.59,0.62-0.76,0.86c-0.08,0.13-0.15,0.24-0.21,0.34l-0.16,0.31c-0.01,0.01-0.01,0.02-0.02,0.03v0
		c-0.12,0.22-0.21,0.48-0.29,0.73c-0.19,0.58-0.34,1.2-0.42,1.84c-0.2,1.44-0.24,3.45-0.1,5.98c0.09,1.83,0.27,3.89,0.45,6.07
		c0.06,0.69,0.12,1.4,0.18,2.11l0.01,0.05c0.24,3.03,0.49,6.16,0.37,9.35c-0.06,1.31-0.18,3.01-0.67,4.5
		c-0.16,0.49-0.51,0.91-0.98,1.18c-0.95,0.54-2.29,0.9-3.97,1.06l-0.62,0.01c-1.1,0.02-1.9,0.04-3.09,0.01
		c-0.63-0.02-1.18-0.07-1.69-0.17c-5.2-1.24-8.83-3.66-11.12-7.42c-2.98-4.74-2.97-10.56-2.7-13.62l0-0.03
		c0.25-4.12,1.24-7.32,1.26-7.37c1.85-6.49,6.01-11.78,12.74-16.16c5.25-3.42,12.12-6.28,20.96-8.75c-0.37,1.21-0.56,2.37-0.57,3.52
		c-0.1,1.56-0.05,3.2,0.17,5.32c0.08,0.73,0.16,1.46,0.25,2.16c0.11,0.94,0.22,1.84,0.3,2.72C83.6,289.47,83.63,290.92,83.57,292.55
		 M180.04,291.47c-1.15-0.45-2.1-0.91-2.92-1.42c-2.74-1.62-4.89-3.9-6.38-6.76c-1.71-3.41-2.37-7.43-1.93-11.63
		c0.39-3.98,1.82-8,4.04-11.31c1.64-2.53,3.79-4.59,6.22-5.97c2.23-1.29,4.65-1.93,7.18-1.93c0.33,0,0.66,0.01,0.99,0.03
		c4,0.25,7.36,1.76,9.95,4.48c2.31,2.71,3.96,6.69,4.89,11.86c-3.96,4.69-7.93,9.07-12.14,13.36
		C186.44,285.68,183.1,288.81,180.04,291.47 M202.97,284.07c-0.36,2.52-0.41,4.67-0.17,6.55c-1.85,0.81-3.83,1.45-6.05,1.94
		c-4.01,0.86-7.07,0.72-7.92,0.66c-0.03,0-0.06,0-0.08-0.01c-1.36-0.04-2.67-0.18-3.92-0.4c2.78-2.47,5.51-5.07,8.11-7.74
		c3.26-3.32,6.51-6.82,9.88-10.68C203.26,279.67,202.99,283.78,202.97,284.07 M207.19,277.02c-0.05-0.4-0.78-6.34-0.84-6.74
		c0.37-0.44,8.79-12.32,9.18-12.8C215.2,258.32,207.51,276.14,207.19,277.02"/>
	<path class="st0" d="M50.24,247.12c-5.31,0-9.64-4.32-9.64-9.64c0-5.32,4.33-9.64,9.64-9.64c5.32,0,9.64,4.32,9.64,9.64
		C59.88,242.8,55.55,247.12,50.24,247.12 M50.24,229.34c-4.49,0-8.14,3.65-8.14,8.14c0,4.48,3.65,8.14,8.14,8.14
		c4.49,0,8.14-3.65,8.14-8.14C58.38,232.99,54.72,229.34,50.24,229.34"/>
	<path class="st0" d="M46.25,241.98v-8.99h4.63c0.86,0,1.52,0.08,1.97,0.22c0.45,0.15,0.82,0.42,1.1,0.82
		c0.28,0.4,0.42,0.88,0.42,1.46c0,0.5-0.1,0.93-0.32,1.29c-0.21,0.36-0.5,0.66-0.88,0.88c-0.24,0.14-0.56,0.26-0.98,0.35
		c0.33,0.11,0.57,0.22,0.72,0.33c0.1,0.07,0.25,0.23,0.44,0.47c0.19,0.24,0.33,0.43,0.39,0.56l1.35,2.61h-3.14l-1.49-2.75
		c-0.19-0.36-0.35-0.59-0.5-0.69c-0.2-0.14-0.43-0.21-0.68-0.21h-0.24v3.65H46.25z M49.05,236.63h1.17c0.13,0,0.37-0.04,0.74-0.12
		c0.18-0.04,0.33-0.13,0.45-0.28c0.12-0.15,0.18-0.33,0.18-0.52c0-0.29-0.09-0.51-0.28-0.67c-0.18-0.15-0.53-0.23-1.04-0.23h-1.22
		V236.63z"/>
</g>
</svg>
