<?xml version="1.0" encoding="utf-8"?>
<!-- Generator: Adobe Illustrator 25.0.0, SVG Export Plug-In . SVG Version: 6.00 Build 0)  -->
<svg version="1.0" id="Layer_1" xmlns="http://www.w3.org/2000/svg" xmlns:xlink="http://www.w3.org/1999/xlink" x="0px" y="0px"
	 viewBox="0 0 571.97 459.86" style="enable-background:new 0 0 571.97 459.86;" xml:space="preserve">
<style type="text/css">
	.st0{fill-rule:evenodd;clip-rule:evenodd;fill:#ADADAD;}
	.st1{fill:#ADADAD;}
</style>
<g>
	<path class="st0" d="M255.97,229.77c-8.81,0.02-17.61,0.04-26.42,0.07v2.33h4.46c2.22-0.01,3.55,1.61,3.52,5.06v39.73
		c-0.02,2.83-0.95,4.78-3.99,4.72h-4.19v2.2h46.85c1.69-4.59,3.37-9.18,5.06-13.78c-1.4,0.02-2.79,0.05-4.19,0.07
		c-5.18,7.89-10.57,11.23-16.1,11.31h-6.19c-4.07,0.07-7.17-0.84-7.19-4.86v-38.8c0-3.79,1.75-5.59,4.92-5.59h3.46V229.77z
		 M274.06,276.77c-2.02,2.33-4.49,4.05-7.45,5.08h5.24C272.58,280.16,273.32,278.46,274.06,276.77 M241.28,237.62
		c-0.02-2.79-1.24-4.55-3.63-5.31c1.77,1.63,2.03,3.21,2.03,5.5l0,0.02h0l0,38.72c0.15,2.77-0.76,4.35-2.03,5.52
		c2.44-0.78,3.67-2.61,3.63-5.52V237.62z"/>
	<path class="st0" d="M313.19,228.59c15.19,0,29.72,9.83,29.72,28.13c0,18.29-15.06,28.48-30.25,28.48
		c-15.19,0-27.51-9.39-27.51-28.48C285.15,237.62,297.99,228.59,313.19,228.59 M323.84,233.89c12.51,8.07,15.66,31.16,4.77,43.39
		C338.07,262.58,332.43,241.73,323.84,233.89 M298.47,279.19c-13.56-6.35-17.23-30.95-2.59-42.66
		C283.61,248.24,288.09,272.25,298.47,279.19 M311.66,231.53c9.08-0.66,18.42,7.53,19.61,23.95c1.19,16.42-7.16,26.21-16.24,26.87
		c-9.08,0.66-17.06-7.23-18.3-24.37C295.47,240.85,302.57,232.19,311.66,231.53"/>
	<path class="st0" d="M285.99,74.94c-0.23,12.02-2.46,15.55-7.45,25.34c-3.98,7.52-4.92,15.12-3.94,22.79
		c-6.82-10.82-27.16-12.37-40.67-0.53c14.57-2.69,25.71,0.95,33.75,10.33c6.83,8.61,11.55,19.53,13.84,33.11
		c3.41,17.59,4.19,36.85,4.47,56.43c0.28-19.58,1.06-38.84,4.47-56.43c2.29-13.58,7.01-24.5,13.84-33.11
		c8.04-9.38,19.18-13.02,33.75-10.33c-13.51-11.84-33.85-10.29-40.67,0.53c0.98-7.66,0.04-15.27-3.94-22.79
		C288.45,90.49,286.21,86.96,285.99,74.94"/>
	<path class="st0" d="M273.98,185.5c1.98-1.27,3.73-2.2,5.7-3.47c-2.86-15.49-9.78-30.05-22.06-40.25
		c-9.95-8.27-21.72-10.56-32.26-8.4l0.04-0.03c-3.36-1.02-6.37-2.74-9.15-4.9c-7.87-7.26,1.51-16.76,4.58-10.33
		c-3.5-0.71-4.84,2.98-2.8,4.48c1.22,0.9,3.29,0.49,4.51-1.09c0.59-0.76,0.86-1.73,0.67-2.97c-0.53-3.54-4.21-5.25-7.42-4.16
		c-4.42,1.5-6.43,8.07-3.1,12.98c2.13,3.14,5.61,5.61,9.2,6.9c-12.33,3.77-22.35,13.75-24.68,27.25c-1.53,8.86,0.04,16.87,5.31,22.2
		c7,7.09,18.66,8.18,26.88,2.58c9.31-6.35,11.57-18.23,25.68-10.74c-3.87-12.41-16.11-11.96-23.49-0.78
		c-1.39-9.15-6.61-14.26-15.21-12.3c4.5,3.59,9.48,9.18,7.89,15.43c-0.58,2.3-2.1,4.34-4.63,5.8c-3.67,2.11-8.07,1.5-13.22-1.87
		c-19.98-19.29,11.53-58.91,41.75-42.24C263.76,148.18,275.91,167.96,273.98,185.5 M297.99,185.5c-1.98-1.27-3.73-2.2-5.71-3.47
		c2.87-15.49,9.78-30.05,22.06-40.25c9.95-8.27,21.72-10.56,32.26-8.4l-0.04-0.03c3.36-1.02,6.36-2.74,9.15-4.9
		c7.87-7.26-1.51-16.76-4.58-10.33c3.5-0.71,4.84,2.98,2.8,4.48c-1.22,0.9-3.3,0.49-4.51-1.09c-0.59-0.76-0.85-1.73-0.67-2.97
		c0.53-3.54,4.21-5.25,7.42-4.16c4.42,1.5,6.43,8.07,3.09,12.98c-2.13,3.14-5.6,5.61-9.2,6.9c12.33,3.77,22.35,13.75,24.68,27.25
		c1.53,8.86-0.04,16.87-5.31,22.2c-7,7.09-18.66,8.18-26.88,2.58c-9.32-6.35-11.57-18.23-25.68-10.74
		c3.87-12.41,16.11-11.96,23.49-0.78c1.39-9.15,6.61-14.26,15.21-12.3c-4.5,3.59-9.48,9.18-7.89,15.43c0.58,2.3,2.1,4.34,4.63,5.8
		c3.66,2.11,8.07,1.5,13.22-1.87c19.98-19.29-11.54-58.91-41.75-42.24C308.21,148.18,296.06,167.96,297.99,185.5"/>
	<path class="st0" d="M256.91,213.78c2.2-0.77,3.63-1.8,3.84-3.24c0.26-1.78-0.52-3.3-1.75-4.21c-4.04-2.99-8.13,1.08-7.57,5.19
		c0.21,2.17,0.76,4,1.67,5.48c3.64,5.95,13.31,6.08,18.81,2.93c6.03-3.46,7.94-8.99,7.9-15.73c-0.09-15.5-11.38-26.71-27.26-25.02
		c-9.07,0.64-16.98,5.22-24.06,12.67c-10.91,11.31-20.74,23.46-38.22,23c-20.63-0.73-22.08-24.05-6.07-26.3
		c-2.96,8.03,8.11,8.94,7.13,0.74c-1.16-5.24-4.66-7.29-9.79-7.13c-9.24,1.66-14.01,7.42-14.59,17.03
		c-0.45,17.92,14.82,25.06,30.45,20.23c-0.26,2.84-1.15,5.53-2.55,8.09c17.38,0.66,27.37-6.27,30.13-20.65
		c4.52,3.57,11.8,7.26,7.66,13.95c6.37-2.48,3.85-12.76,6.77-19.1c7.37-16,32.79-18.39,34.92,0.44
		C276.17,218.44,258.76,221.47,256.91,213.78 M315.06,213.78c-2.2-0.77-3.63-1.8-3.84-3.24c-0.26-1.78,0.52-3.3,1.75-4.21
		c4.04-2.99,8.13,1.08,7.57,5.19c-0.21,2.17-0.76,4-1.67,5.48c-3.64,5.95-13.31,6.08-18.81,2.93c-6.03-3.46-7.94-8.99-7.9-15.73
		c0.09-15.5,11.38-26.71,27.26-25.02c9.07,0.64,16.98,5.22,24.06,12.67c10.91,11.31,20.74,23.46,38.22,23
		c20.63-0.73,22.08-24.05,6.07-26.3c2.96,8.03-8.11,8.94-7.13,0.74c1.16-5.24,4.66-7.29,9.79-7.13c9.24,1.66,14.01,7.42,14.59,17.03
		c0.45,17.92-14.82,25.06-30.45,20.23c0.26,2.84,1.15,5.53,2.55,8.09c-17.38,0.66-27.37-6.27-30.13-20.65
		c-4.52,3.57-11.8,7.26-7.67,13.95c-6.37-2.48-3.85-12.76-6.77-19.1c-7.37-16-32.79-18.39-34.92,0.44
		C295.8,218.44,313.21,221.47,315.06,213.78"/>
	<path class="st0" d="M73.7,333.81c2.5,0,4.52,2.02,4.52,4.52c0,2.5-2.03,4.52-4.52,4.52c-2.5,0-4.53-2.02-4.53-4.52
		C69.17,335.84,71.2,333.81,73.7,333.81 M51.16,336.08c1.25,0,2.26,1.01,2.26,2.26c0,1.25-1.01,2.26-2.26,2.26s-2.26-1.01-2.26-2.26
		C48.9,337.09,49.91,336.08,51.16,336.08 M57.33,335.5c1.57,0,2.84,1.27,2.84,2.84c0,1.57-1.27,2.84-2.84,2.84
		c-1.57,0-2.84-1.27-2.84-2.84C54.49,336.77,55.76,335.5,57.33,335.5 M64.83,334.97c1.86,0,3.37,1.51,3.37,3.37
		c0,1.86-1.51,3.37-3.37,3.37c-1.86,0-3.37-1.51-3.37-3.37C61.46,336.48,62.97,334.97,64.83,334.97"/>
	<path class="st0" d="M486.4,230.25c-1.41,0.06-2.5,1.1-1.62,3.25c2.83,5.97-1.12,11.83-7.86,10.82
		c-13.17-1.98-9.04-25.88,8.46-20.84c9.02,2.59,12.46,11.9,9.96,20.06c-3.01,9.86-10.06,14.77-17.94,15.76
		c-10.43,1.31-16.96-3.22-23.37-8.79c-5.96-5.18-10.77-9.54-17.59-13.67c-23.87-14.47-48.01-13.46-67.82,2.42
		c17.92-18.9,38.29-18.24,56.2-11.81c5.48,1.97,10.79,4.48,15.79,7.61c10.58,6.63,21.15,20.05,34.18,18.74
		C494.7,251.79,494.38,229.91,486.4,230.25 M52.54,306.64c0.17,0,0.33,0.03,0.48,0.07l-0.01-0.07c1.18,0.4,1.85,1.1,1.97,2.1
		c0.27,2.18-1.38,3.48-3.49,3.42c-5.05-0.15-5.07-10.21,4.27-8.89c-2.97-5.12-3.08-11.93,0.79-16.68
		c5.13-6.29,15.01-5.29,17.05,1.83c1,3.47-0.43,7.62-4.62,9.88c-1.79,0.89-2.9-0.58-1.64-1.23c3.7-1.78,5.35-5.35,4.38-8.38
		c-1.65-5.17-7.92-6.06-12.34-2.3c-6.59,5.62-4.88,15.11,1.48,20.12c3.01,2.37,7.02,3.48,12.05,3.32
		c22.63-0.73,36.53-22.77,44.93-41.86c15.67-43.89,94.94-48.57,92.59,1.9c-0.94,20.3-19.84,34.32-33.63,20.56
		c18.79-1.14,26.92-13.96,25.83-26.74c-2.84-15.54-20.23-21.76-32.75-14.17c-9.47,5.73-14.7,17.79-7.49,27.41
		c5.27,7.03,15.43,8.3,21.52,4.34c8.54-5.55,5.14-19.62-4.66-15.91c-2.37,1.03-3.24,2.92-2.49,5.66c0.3,0.73-0.71,1.19-1.06,0.43
		c-2.71-6.94,8.52-12.33,13.56-3.74c3.48,6.78-0.34,13.3-6.7,16.31c-7.35,3.47-18.46,0.97-23.09-5.85
		c-6.36-9.39-3.53-20.01,3.79-26.87c6.42-6.01,14.5-8.11,22.25-6.86c-1.9-0.7-3.81-1.24-5.75-1.64c-6.5-1.35-13.24-1.06-20.16,0.56
		h-0.01c-7.64,1.61-18.3,9.85-19.23,18.12c-0.36,3.23,0.47,7.92,4.31,8.55c0.6,0.1,1.19,0.05,1.7-0.13c1.5-0.53,2.13-2.14,1.82-3.63
		c-0.52-2.44-2.95-3.61-5.31-3.1c-0.79,0.16-0.94-0.88-0.22-1.04c2.94-0.63,5.92,0.91,6.57,3.92c0.66,3.07-1.71,5.52-4.73,5.03
		c-4.45-0.72-5.63-5.86-5.2-9.71c0.98-8.74,11.96-17.33,20.06-19.04c7.07-1.65,13.95-1.94,20.61-0.56
		c4.18,0.86,8.26,2.38,12.23,4.63c1.53,0.65,3.02,1.45,4.46,2.37c-4.84-6.17-12.51-10.74-22.75-11.53
		c-24.27-1.74-43.75,10.85-50.99,31.54c-1.66,9.62-0.71,21.43,6.64,27c9.7,7.34,22.24-0.51,17.74-7.99
		c-0.54-0.9-1.24-1.55-2.11-1.92c0.07,0.35,0.12,0.72,0.12,1.1c0,2.74-2.08,4.95-4.63,4.95c-2.56,0-4.63-2.21-4.63-4.95
		c0-1.88,0.98-3.51,2.42-4.35c2.64-1.89,6.93-1.27,9.93,1.8c6.83,8.26-0.13,15.98-8.83,17.09c-10.84,1.39-17.28-7.5-19.61-17
		c-0.01,0.25-0.03,0.5-0.03,0.74c-0.76,22.52,17.98,36.81,36.42,22.14c-13.3,19.41-40.39,6.95-41.1-20.23
		c-0.16-2.48-0.12-4.86,0.05-7.18c-0.48,0.7-0.96,1.4-1.44,2.09c-8.92,25.21,14.44,52.12,42.25,47.46
		c11.87-3.03,19.01-9.27,19.99-19.73c0.13-3.87-0.93-6-3.21-6.32c0.15-3.29-1.84-5.04-5.6-5.28c8.95-1.42,15.62,9.74,6.94,21.55
		c-5.52,6.31-11.42,9.75-18.89,11.02c-14.78,2.51-28.18-3.85-37.35-15.47c-5.73-7.04-8.58-16.38-6.8-29.4
		c-6.27,8.81-12.95,16.74-23.47,22.13c-7.68,3.31-15.46,4.66-23.43,2.15c-1.86-0.66-3.48-1.52-4.86-2.6
		c-0.76-0.59-1.45-1.26-2.07-1.99c-3.11-1.88-7.92-1.04-7.97,2.9c-0.06,2.32,2.95,2.93,3.63,1.52c-0.16,0.05-0.34,0.08-0.51,0.08
		c-0.94,0-1.7-0.76-1.7-1.7C50.84,307.4,51.6,306.64,52.54,306.64 M519.43,306.64c-0.17,0-0.33,0.03-0.49,0.07l0.01-0.07
		c-1.18,0.4-1.85,1.1-1.97,2.1c-0.27,2.18,1.38,3.48,3.49,3.42c5.04-0.15,5.07-10.2-4.26-8.89c2.97-5.12,3.08-11.92-0.79-16.67
		c-5.13-6.29-15.01-5.29-17.06,1.83c-1,3.47,0.43,7.62,4.62,9.88c1.8,0.89,2.9-0.58,1.64-1.23c-3.7-1.78-5.35-5.35-4.38-8.38
		c1.65-5.17,7.92-6.06,12.34-2.3c6.59,5.62,4.88,15.11-1.48,20.12c-3.01,2.37-7.02,3.48-12.05,3.32
		c-22.63-0.73-36.53-22.77-44.93-41.86c-15.67-43.89-94.94-48.57-92.59,1.9c0.94,20.3,19.84,34.32,33.63,20.56
		c-18.79-1.14-26.92-13.96-25.83-26.74c2.84-15.54,20.23-21.76,32.75-14.17c9.47,5.73,14.69,17.79,7.48,27.41
		c-5.27,7.03-15.43,8.3-21.52,4.34c-8.54-5.55-5.13-19.62,4.66-15.91c2.37,1.03,3.24,2.92,2.49,5.66c-0.3,0.73,0.71,1.19,1.06,0.43
		c2.71-6.94-8.52-12.33-13.56-3.74c-3.48,6.78,0.34,13.3,6.7,16.31c7.34,3.47,18.47,0.97,23.08-5.85
		c6.36-9.39,3.53-20.01-3.79-26.87c-6.41-6.01-14.5-8.11-22.24-6.86c1.89-0.7,3.81-1.24,5.74-1.64c6.5-1.35,13.24-1.06,20.16,0.56
		h0.01c7.65,1.61,18.3,9.85,19.23,18.12c0.36,3.23-0.47,7.92-4.31,8.55c-0.6,0.1-1.18,0.05-1.7-0.13c-1.5-0.53-2.14-2.14-1.82-3.63
		c0.52-2.44,2.95-3.61,5.31-3.1c0.79,0.16,0.94-0.88,0.22-1.04c-2.94-0.63-5.92,0.91-6.57,3.92c-0.66,3.07,1.7,5.52,4.72,5.03
		c4.45-0.72,5.63-5.86,5.2-9.71c-0.98-8.74-11.96-17.33-20.06-19.04c-7.07-1.65-13.95-1.94-20.61-0.56
		c-4.18,0.86-8.25,2.38-12.23,4.63c-1.53,0.65-3.03,1.45-4.46,2.37c4.84-6.17,12.51-10.74,22.75-11.53
		c24.27-1.74,43.75,10.85,50.99,31.54c1.66,9.62,0.72,21.43-6.64,27c-9.69,7.34-22.24-0.51-17.74-7.99c0.54-0.9,1.24-1.55,2.11-1.92
		c-0.08,0.35-0.12,0.72-0.12,1.1c0,2.74,2.07,4.95,4.63,4.95c2.55,0,4.63-2.21,4.63-4.95c0-1.88-0.98-3.51-2.42-4.35
		c-2.64-1.89-6.93-1.27-9.93,1.8c-6.83,8.26,0.13,15.98,8.84,17.09c10.84,1.39,17.28-7.5,19.61-17c0.01,0.25,0.03,0.5,0.03,0.74
		c0.76,22.52-17.98,36.81-36.42,22.14c13.3,19.41,40.39,6.95,41.1-20.23c0.15-2.48,0.12-4.86-0.06-7.18c0.48,0.7,0.97,1.4,1.44,2.09
		c8.92,25.21-14.44,52.12-42.25,47.46c-11.88-3.03-19.01-9.27-19.99-19.73c-0.13-3.87,0.93-6,3.21-6.32
		c-0.15-3.29,1.84-5.04,5.59-5.28c-8.94-1.42-15.62,9.74-6.94,21.55c5.52,6.31,11.42,9.75,18.89,11.02
		c14.78,2.51,28.18-3.85,37.35-15.47c5.73-7.04,8.58-16.38,6.8-29.4c6.27,8.81,12.94,16.74,23.46,22.13
		c7.69,3.31,15.47,4.66,23.43,2.15c1.86-0.66,3.48-1.52,4.86-2.6c0.77-0.6,1.46-1.27,2.09-2c3.11-1.86,7.9-1.01,7.94,2.91
		c0.06,2.32-2.95,2.93-3.63,1.52c0.16,0.05,0.34,0.08,0.51,0.08c0.94,0,1.7-0.76,1.7-1.7C521.13,307.4,520.37,306.64,519.43,306.64
		 M85.58,230.25c1.41,0.06,2.51,1.1,1.62,3.25c-2.83,5.97,1.12,11.83,7.86,10.82c13.17-1.98,9.04-25.88-8.47-20.84
		c-9.02,2.59-12.46,11.9-9.96,20.06c3.02,9.86,10.06,14.77,17.94,15.76c10.44,1.31,16.97-3.22,23.37-8.79
		c5.96-5.18,10.77-9.54,17.59-13.67c23.87-14.47,48.01-13.46,67.83,2.42c-17.92-18.9-38.29-18.24-56.2-11.81
		c-5.49,1.97-10.79,4.48-15.79,7.61c-10.58,6.63-21.14,20.05-34.18,18.74C77.27,251.79,77.6,229.91,85.58,230.25 M107.21,269.18
		c-13.29,7.53-28.28,5.49-35.08-2.48c7.2,4.73,15.26,0.98,18.21-4.39c4.4,3.28,8.18,4.42,11.93,3.65
		c7.61-1.58,19.36-17.46,28.21-23.71c23.91-16.88,56.17-20.5,76.9,5.71c-6.8-7.78-14.76-12.66-23.75-14.83
		c-16.63-4.02-35.11,0.96-49.37,10.86C122.82,251.92,118.36,262.87,107.21,269.18 M464.77,269.18c13.29,7.53,28.28,5.49,35.08-2.48
		c-7.2,4.73-15.26,0.98-18.21-4.39c-4.4,3.28-8.18,4.42-11.93,3.65c-7.61-1.58-19.36-17.46-28.21-23.71
		c-23.91-16.88-56.17-20.5-76.9,5.71c6.8-7.78,14.75-12.66,23.75-14.83c16.63-4.02,35.11,0.96,49.37,10.86
		C449.16,251.92,453.63,262.87,464.77,269.18"/>
	<path class="st0" d="M186.67,313.45c0.85,1.44,2.17,1.63,2.94,2.8c0.85,1.28,0.9,3.13,1.67,4.08c-10.64-0.66-9-17.61,2.52-16.65
		c2.92,0.24,5.22,2.02,7.55,5.69c-2.41-5.46-5.85-8.72-14.24-5.55c4.68-3.67,10.19-2.8,13.68,0.75c3.99,4.06,3.07,10.58,8.15,13.75
		c1.48,0.92,3.35,1.34,5.79,1.02c8.18-1.06,9.29-14.41,0.62-13.6c-2.03,0.19-3.82,1.2-4.48,3.25c-0.21,0.65-0.23,1.36-0.13,2.22
		c0.11,0.52,0.27,0.99,0.48,1.41c0.74,1.52,2.06,2.4,3.43,2.7c0.78,0.17,1.57,0.15,2.3-0.03c0.71-0.19,1.36-0.55,1.84-1.08
		c1.66-1.79,1.06-5.63-1.55-6.17c-1.36-0.28-2.82,0.52-2.55,2.08c0.04,0.28,0.16,0.51,0.33,0.7c0.47,0.52,0.99,0.51,1.56,0.19
		c0.43-0.21,0.86,0.35,0.34,0.62c-0.87,0.48-1.72,0.44-2.42-0.33c-0.25-0.28-0.43-0.64-0.5-1.05c-0.36-2.11,1.43-3.3,3.39-2.89
		c3.22,0.66,4,5.1,1.93,7.34c-0.58,0.62-1.34,1.05-2.18,1.27c-0.83,0.22-1.74,0.24-2.63,0.05c-1.59-0.35-3.11-1.38-3.95-3.14
		c-0.22-0.46-0.39-0.97-0.51-1.53l-0.01-0.03c-0.18-0.85-0.13-1.81,0.09-2.74c1.19-4.78,7.03-6.12,9.02-4.39
		c0.37,0.33,0.53,1.01,0.95,1.33c0.39,0.3,1.04,0.26,1.62,0.56c2.29,1.22,2.98,6.53,0.17,10.96c-1.93,2.6-4.38,3.9-7.29,4.07
		c-7.99,0.47-11.66-5.56-15.78-11.34c-3.08-3.73-5.55,0.34-7.37-2.57c-5.34,3.98,2.3,8.14,2.39,2.57c-0.09-0.91,0.81-0.96,0.98-0.36
		c1.2,4.29-2.4,5.59-4.82,4.34c-4.15-2.16-2.12-9.63,5.88-8.24c-3.06-1.37-6.05-1.44-8.87,2.04
		C185.61,309.48,185.72,311.76,186.67,313.45 M282.55,313.39c-1.28,2.16-3.25,2.44-4.41,4.18c-1.28,1.92-1.35,4.69-2.5,6.11
		c8.73-0.75,12.63-11.01,9.24-17.86c-4.87-9.82-16.3-9.6-21.65,0.29c-2.8,5.17-5.71,10.98-8.84,12.81
		c8.86-7.74,7.75-28.94,27.5-19.92c-7.01-5.49-15.27-4.19-20.5,1.12c-5.98,6.06-4.6,15.83-12.22,20.56c-2.22,1.38-5.02,2-8.67,1.53
		c-12.26-1.59-13.92-21.55-0.93-20.33c3.04,0.29,5.73,1.8,6.71,4.86c0.31,0.97,0.35,2.03,0.19,3.32c-0.16,0.77-0.4,1.48-0.71,2.11
		c-1.11,2.27-3.08,3.59-5.15,4.04c-1.16,0.25-2.36,0.23-3.44-0.06c-1.07-0.28-2.03-0.82-2.76-1.61c-2.49-2.68-1.59-8.42,2.32-9.22
		c2.05-0.42,4.23,0.78,3.82,3.11c-0.07,0.42-0.24,0.77-0.49,1.04c-0.71,0.78-1.47,0.77-2.34,0.29c-0.63-0.32-1.29,0.52-0.51,0.93
		c1.3,0.72,2.59,0.65,3.64-0.5c0.38-0.42,0.65-0.95,0.75-1.57c0.54-3.15-2.14-4.93-5.08-4.33c-4.83,0.99-6,7.62-2.89,10.98
		c0.87,0.93,2.01,1.58,3.27,1.91c1.24,0.33,2.61,0.36,3.93,0.07c2.39-0.52,4.67-2.06,5.92-4.7c0.33-0.69,0.58-1.45,0.76-2.29
		l0.01-0.04c0.27-1.26,0.21-2.71-0.14-4.09c-1.78-7.15-10.53-9.16-13.52-6.57c-0.56,0.48-0.79,1.5-1.42,1.99
		c-0.59,0.45-1.56,0.38-2.42,0.84c-3.43,1.82-4.47,9.77-0.25,16.39c2.88,3.9,6.56,5.83,10.92,6.09
		c11.97,0.71,17.47-8.31,23.64-16.97c4.61-5.58,8.32,0.51,11.03-3.85c8,5.95-3.45,12.17-3.59,3.85c0.14-1.36-1.22-1.44-1.46-0.53
		c-1.79,6.42,3.59,8.36,7.22,6.48c6.22-3.22,3.18-14.4-8.81-12.32c4.58-2.06,9.07-2.15,13.29,3.05
		C284.14,307.45,283.97,310.86,282.55,313.39"/>
	<path class="st0" d="M385.29,314.2c-0.85,1.44-2.17,1.63-2.94,2.79c-0.85,1.28-0.9,3.13-1.67,4.08c10.64-0.66,9-17.61-2.52-16.65
		c-2.93,0.24-5.22,2.02-7.55,5.69c2.41-5.46,5.85-8.72,14.24-5.55c-4.68-3.67-10.19-2.8-13.68,0.75
		c-3.99,4.06-3.07,10.58-8.15,13.75c-1.48,0.92-3.35,1.34-5.79,1.02c-8.18-1.07-9.29-14.41-0.62-13.6c2.03,0.19,3.82,1.2,4.48,3.25
		c0.21,0.65,0.23,1.36,0.13,2.22c-0.11,0.52-0.27,0.99-0.47,1.41c-0.74,1.52-2.06,2.4-3.44,2.7c-0.78,0.17-1.57,0.15-2.3-0.03
		c-0.71-0.19-1.36-0.55-1.84-1.07c-1.66-1.79-1.06-5.63,1.55-6.17c1.36-0.28,2.82,0.52,2.55,2.08c-0.05,0.28-0.16,0.51-0.33,0.69
		c-0.47,0.52-0.99,0.51-1.56,0.19c-0.42-0.22-0.86,0.35-0.34,0.62c0.87,0.49,1.73,0.44,2.43-0.33c0.25-0.28,0.43-0.64,0.5-1.05
		c0.36-2.11-1.43-3.3-3.39-2.89c-3.22,0.66-4.01,5.1-1.93,7.34c0.58,0.62,1.34,1.05,2.18,1.28c0.83,0.22,1.74,0.24,2.63,0.04
		c1.6-0.35,3.12-1.37,3.95-3.14c0.22-0.46,0.39-0.97,0.5-1.53l0.01-0.03c0.18-0.85,0.14-1.81-0.09-2.74
		c-1.19-4.78-7.02-6.12-9.02-4.39c-0.38,0.33-0.53,1.01-0.95,1.33c-0.39,0.3-1.04,0.26-1.61,0.56c-2.29,1.22-2.98,6.53-0.17,10.96
		c1.92,2.6,4.38,3.9,7.29,4.07c7.99,0.47,11.66-5.56,15.78-11.34c3.08-3.73,5.55,0.34,7.36-2.57c5.34,3.98-2.3,8.14-2.39,2.57
		c0.09-0.91-0.81-0.96-0.98-0.35c-1.2,4.29,2.39,5.59,4.82,4.34c4.15-2.15,2.12-9.63-5.88-8.24c3.06-1.37,6.05-1.44,8.87,2.04
		C386.36,310.22,386.25,312.5,385.29,314.2 M290.15,313.39c1.28,2.16,3.25,2.44,4.41,4.18c1.28,1.92,1.35,4.69,2.5,6.11
		c-8.72-0.75-12.63-11.01-9.24-17.86c4.87-9.82,16.31-9.6,21.65,0.29c2.8,5.17,5.71,10.98,8.84,12.81
		c-8.86-7.74-7.75-28.94-27.5-19.92c7.01-5.49,15.27-4.19,20.5,1.12c5.98,6.06,4.6,15.83,12.22,20.56c2.22,1.38,5.02,2,8.67,1.53
		c12.26-1.59,13.92-21.55,0.93-20.33c-3.04,0.29-5.73,1.8-6.71,4.86c-0.31,0.97-0.35,2.03-0.19,3.32c0.16,0.77,0.4,1.48,0.71,2.11
		c1.11,2.27,3.08,3.59,5.15,4.04c1.16,0.25,2.36,0.23,3.44-0.06c1.07-0.28,2.03-0.82,2.76-1.61c2.49-2.68,1.59-8.42-2.32-9.22
		c-2.05-0.42-4.23,0.78-3.82,3.11c0.07,0.42,0.24,0.77,0.49,1.04c0.71,0.78,1.47,0.77,2.34,0.29c0.63-0.32,1.29,0.52,0.51,0.93
		c-1.3,0.72-2.59,0.65-3.64-0.5c-0.38-0.42-0.64-0.95-0.75-1.57c-0.54-3.15,2.14-4.93,5.09-4.33c4.82,0.99,5.99,7.62,2.88,10.98
		c-0.87,0.93-2.01,1.58-3.27,1.91c-1.24,0.33-2.61,0.36-3.93,0.07c-2.39-0.52-4.67-2.06-5.92-4.7c-0.33-0.69-0.58-1.45-0.76-2.29
		l-0.01-0.04c-0.27-1.26-0.21-2.71,0.14-4.09c1.78-7.15,10.53-9.16,13.52-6.57c0.56,0.48,0.79,1.5,1.42,1.99
		c0.59,0.45,1.56,0.38,2.42,0.84c3.43,1.82,4.47,9.77,0.25,16.39c-2.89,3.9-6.57,5.83-10.93,6.09
		c-11.97,0.71-17.47-8.31-23.64-16.97c-4.61-5.58-8.32,0.51-11.03-3.85c-8,5.95,3.45,12.17,3.59,3.85
		c-0.14-1.36,1.22-1.44,1.46-0.53c1.79,6.42-3.59,8.36-7.22,6.48c-6.22-3.22-3.18-14.4,8.81-12.32c-4.58-2.06-9.07-2.15-13.29,3.05
		C288.56,307.45,288.73,310.86,290.15,313.39"/>
	<path class="st0" d="M498.1,333.81c-2.5,0-4.52,2.02-4.52,4.52c0,2.5,2.03,4.52,4.52,4.52c2.5,0,4.53-2.02,4.53-4.52
		C502.63,335.84,500.6,333.81,498.1,333.81 M520.64,336.08c-1.25,0-2.26,1.01-2.26,2.26c0,1.25,1.01,2.26,2.26,2.26
		c1.25,0,2.26-1.01,2.26-2.26C522.9,337.09,521.89,336.08,520.64,336.08 M514.47,335.5c-1.57,0-2.84,1.27-2.84,2.84
		c0,1.57,1.27,2.84,2.84,2.84c1.57,0,2.84-1.27,2.84-2.84C517.31,336.77,516.04,335.5,514.47,335.5 M506.97,334.97
		c-1.86,0-3.37,1.51-3.37,3.37c0,1.86,1.51,3.37,3.37,3.37c1.86,0,3.37-1.51,3.37-3.37C510.34,336.48,508.84,334.97,506.97,334.97"
		/>
	<rect x="79.44" y="336.52" class="st0" width="412.4" height="3.73"/>
	<path class="st0" d="M73.7,375.87c2.5,0,4.52,2.02,4.52,4.52c0,2.5-2.03,4.52-4.52,4.52c-2.5,0-4.53-2.03-4.53-4.52
		C69.17,377.9,71.2,375.87,73.7,375.87 M51.16,378.13c1.25,0,2.26,1.01,2.26,2.26c0,1.25-1.01,2.26-2.26,2.26s-2.26-1.01-2.26-2.26
		C48.9,379.15,49.91,378.13,51.16,378.13 M57.33,377.55c1.57,0,2.84,1.27,2.84,2.84s-1.27,2.84-2.84,2.84
		c-1.57,0-2.84-1.27-2.84-2.84S55.76,377.55,57.33,377.55 M64.83,377.02c1.86,0,3.37,1.51,3.37,3.37s-1.51,3.37-3.37,3.37
		c-1.86,0-3.37-1.51-3.37-3.37S62.97,377.02,64.83,377.02"/>
	<path class="st0" d="M498.1,375.87c-2.5,0-4.52,2.02-4.52,4.52c0,2.5,2.03,4.52,4.52,4.52c2.5,0,4.53-2.03,4.53-4.52
		C502.63,377.9,500.6,375.87,498.1,375.87 M520.64,378.13c-1.25,0-2.26,1.01-2.26,2.26c0,1.25,1.01,2.26,2.26,2.26
		c1.25,0,2.26-1.01,2.26-2.26C522.9,379.15,521.89,378.13,520.64,378.13 M514.47,377.55c-1.57,0-2.84,1.27-2.84,2.84
		s1.27,2.84,2.84,2.84c1.57,0,2.84-1.27,2.84-2.84S516.04,377.55,514.47,377.55 M506.97,377.02c-1.86,0-3.37,1.51-3.37,3.37
		s1.51,3.37,3.37,3.37c1.86,0,3.37-1.51,3.37-3.37S508.84,377.02,506.97,377.02"/>
	<rect x="79.44" y="378.57" class="st0" width="412.4" height="3.72"/>
	<path class="st1" d="M371.56,352.53c0.33,0.05,0.6,0.14,0.83,0.26c0.22,0.13,0.39,0.32,0.51,0.58c0.12,0.26,0.17,0.62,0.17,1.08
		c0,0.44,0,0.94-0.01,1.5c-0.01,0.55-0.03,1.12-0.05,1.71c-0.02,0.59-0.05,1.15-0.08,1.71c-0.05,0.77-0.09,1.52-0.13,2.22
		c-0.04,0.71-0.07,1.35-0.1,1.93c-0.03,0.58-0.07,1.07-0.11,1.47c-0.03,0.37-0.08,0.67-0.13,0.9c-0.05,0.22-0.13,0.4-0.23,0.52
		c-0.1,0.13-0.25,0.22-0.43,0.28c-0.19,0.07-0.44,0.12-0.74,0.18l-0.44,0.07c-0.07,0.05-0.12,0.13-0.14,0.25
		c-0.02,0.12-0.01,0.24,0.03,0.36c0.04,0.12,0.11,0.19,0.22,0.24c0.49-0.03,0.96-0.05,1.41-0.05c0.45-0.01,0.88-0.02,1.27-0.02
		c0.46,0,0.95,0.01,1.44,0.02c0.5,0.01,0.97,0.03,1.43,0.05c0.07-0.05,0.12-0.13,0.14-0.24c0.03-0.12,0.04-0.23,0.02-0.35
		c-0.01-0.12-0.05-0.2-0.12-0.26l-0.95-0.15c-0.32-0.04-0.56-0.12-0.72-0.24c-0.16-0.11-0.27-0.29-0.33-0.52
		c-0.05-0.23-0.08-0.55-0.07-0.95c0-0.37,0-0.79,0-1.25c0.01-0.46,0.01-0.94,0.01-1.45c0-0.5,0.01-0.99,0.01-1.46
		c0.01-0.48,0.01-0.92,0.02-1.32c0.01-0.42,0.02-0.83,0.03-1.23c0.01-0.4,0.02-0.81,0.04-1.25c0.02-0.43,0.04-0.91,0.08-1.43h0.05
		c0.23,0.53,0.49,1.13,0.8,1.79c0.3,0.67,0.63,1.37,0.97,2.11c0.35,0.74,0.69,1.5,1.04,2.26c0.35,0.77,0.69,1.52,1.01,2.25
		c0.32,0.73,0.61,1.42,0.87,2.07c0.26,0.65,0.46,1.22,0.63,1.73c0.08,0.05,0.17,0.08,0.29,0.11c0.12,0.02,0.23,0.04,0.35,0.04
		c0.1,0,0.19-0.02,0.27-0.05c0.08-0.03,0.15-0.07,0.22-0.12c0.54-1.37,1.11-2.74,1.7-4.09c0.6-1.36,1.2-2.7,1.82-4.03
		c0.62-1.34,1.22-2.65,1.83-3.95h0.05v2.78l0.05,6.33c0,0.37-0.01,0.67-0.02,0.9c-0.02,0.24-0.06,0.42-0.12,0.56
		c-0.07,0.13-0.18,0.24-0.33,0.3c-0.15,0.07-0.37,0.12-0.65,0.15l-0.73,0.1c-0.08,0.06-0.13,0.15-0.15,0.26
		c-0.02,0.12-0.01,0.24,0.03,0.35c0.04,0.11,0.1,0.19,0.2,0.24c0.4-0.02,0.79-0.03,1.21-0.04c0.42-0.01,0.83-0.02,1.23-0.02
		c0.41,0,0.79-0.01,1.16-0.01c0.6,0,1.16,0.01,1.71,0.02c0.55,0.01,1.1,0.03,1.65,0.05c0.08-0.04,0.14-0.11,0.17-0.22
		c0.03-0.11,0.03-0.23,0.01-0.35c-0.02-0.12-0.07-0.21-0.13-0.28l-0.78-0.1c-0.31-0.04-0.55-0.13-0.7-0.28
		c-0.15-0.14-0.25-0.35-0.31-0.6c-0.05-0.26-0.08-0.57-0.09-0.95c-0.03-0.61-0.05-1.21-0.08-1.81c-0.02-0.6-0.04-1.21-0.06-1.84
		c-0.02-0.63-0.03-1.3-0.03-2.01c-0.01-0.71-0.02-1.47-0.02-2.31c-0.01-0.83-0.01-1.75-0.01-2.75c0-0.42,0.05-0.75,0.16-0.99
		c0.11-0.23,0.28-0.41,0.5-0.52c0.22-0.11,0.5-0.19,0.83-0.24l0.71-0.12c0.06-0.09,0.11-0.19,0.13-0.3
		c0.02-0.11,0.02-0.22-0.02-0.33c-0.03-0.1-0.09-0.18-0.18-0.23c-0.3,0.02-0.61,0.03-0.94,0.04c-0.33,0.01-0.65,0.02-0.97,0.02
		c-0.32,0.01-0.62,0.01-0.89,0.01c-0.24,0-0.47,0-0.7,0c-0.23,0-0.48,0-0.75-0.02c-0.27-0.01-0.59-0.03-0.96-0.06
		c-0.13,0.52-0.27,1-0.42,1.45c-0.15,0.45-0.31,0.89-0.49,1.34c-0.18,0.44-0.39,0.91-0.62,1.41c-0.23,0.5-0.49,1.06-0.78,1.68
		l-1.24,2.68c-0.22,0.47-0.41,0.88-0.58,1.23c-0.17,0.34-0.31,0.63-0.44,0.88c-0.13,0.25-0.24,0.47-0.35,0.66
		c-0.09-0.16-0.2-0.36-0.34-0.6c-0.14-0.24-0.28-0.5-0.42-0.76c-0.15-0.27-0.28-0.51-0.4-0.74c-0.12-0.23-0.21-0.41-0.27-0.53
		l-1.61-3.43c-0.36-0.76-0.69-1.44-0.97-2.05c-0.29-0.61-0.52-1.18-0.69-1.7c-0.17-0.52-0.25-1.03-0.26-1.53
		c-0.43,0.04-0.84,0.06-1.22,0.07c-0.38,0.01-0.77,0.01-1.17,0.01c-0.6,0-1.15-0.01-1.67-0.02c-0.52-0.01-0.98-0.03-1.4-0.06
		c-0.09,0.03-0.15,0.1-0.19,0.21c-0.03,0.11-0.03,0.23-0.02,0.35c0.02,0.13,0.06,0.22,0.13,0.29L371.56,352.53z M181.16,353.44
		c-0.54-2.11-2.13-2.19-3.13-1.7c-0.44,0.21-0.93,0.46-1.5,0.71c-0.38,0.17-0.14,1.19,0.41,1.14c0.4-0.22,0.72-0.38,0.97-0.47
		c-0.01,0.12-0.04,0.24-0.07,0.36c-0.07,0.28-0.18,0.61-0.33,0.99c-0.14,0.38-0.31,0.82-0.5,1.33l-2.22,5.94
		c-0.22,0.58-0.42,1.1-0.6,1.57c-0.18,0.46-0.35,0.89-0.5,1.27c-0.15,0.38-0.3,0.73-0.44,1.05c-0.14,0.31-0.28,0.55-0.44,0.72
		c-0.15,0.17-0.32,0.29-0.49,0.36c-0.17,0.07-0.36,0.12-0.55,0.14l-0.66,0.07c-0.06,0.07-0.1,0.16-0.12,0.28
		c-0.02,0.11-0.01,0.22,0.02,0.33c0.03,0.11,0.08,0.19,0.17,0.24c0.37,0,0.69-0.01,0.97-0.02c0.27-0.01,0.53-0.02,0.77-0.03
		c0.24-0.01,0.5-0.02,0.77-0.02c0.51,0.01,0.99,0.02,1.44,0.03c0.45,0.01,0.89,0.02,1.31,0.04c0.08-0.04,0.13-0.13,0.15-0.24
		c0.02-0.11,0.02-0.23,0-0.35c-0.02-0.12-0.06-0.21-0.1-0.27l-0.73-0.12c-0.34-0.06-0.59-0.13-0.76-0.2
		c-0.16-0.07-0.24-0.14-0.24-0.22c0-0.09,0.01-0.2,0.03-0.33c0.03-0.13,0.07-0.31,0.14-0.55l0.95-2.82
		c0.04-0.15,0.09-0.26,0.14-0.33c0.06-0.07,0.13-0.12,0.23-0.13c0.1-0.02,0.24-0.03,0.43-0.02h2.9c0.28-0.01,0.5,0.01,0.65,0.03
		c0.16,0.02,0.27,0.06,0.35,0.12c0.07,0.07,0.13,0.16,0.17,0.29l0.66,2.09c0.14,0.45,0.26,0.82,0.34,1.1
		c0.08,0.28,0.12,0.47,0.12,0.55c0.01,0.05-0.01,0.1-0.04,0.15c-0.03,0.05-0.1,0.1-0.19,0.14c-0.09,0.04-0.23,0.09-0.42,0.12
		l-0.78,0.12c-0.09,0.07-0.14,0.16-0.17,0.28c-0.02,0.11-0.01,0.22,0.02,0.33c0.04,0.11,0.1,0.19,0.19,0.24
		c0.37-0.02,0.73-0.03,1.08-0.04c0.35-0.01,0.7-0.02,1.07-0.03c0.36,0,0.74-0.01,1.14-0.01c0.64,0,1.27,0.01,1.91,0.02
		c0.64,0.01,1.25,0.03,1.84,0.05c0.07-0.05,0.12-0.14,0.14-0.26c0.02-0.12,0.02-0.24,0-0.35c-0.03-0.12-0.06-0.2-0.11-0.24
		l-0.93-0.15c-0.29-0.04-0.53-0.14-0.71-0.3c-0.18-0.16-0.34-0.39-0.47-0.69c-0.13-0.3-0.28-0.69-0.45-1.18l-3.31-9.54
		c-0.13-0.39-0.26-0.73-0.36-1.05C181.29,353.83,181.23,353.64,181.16,353.44 M177.2,360.89c-0.2,0.01-0.35-0.01-0.45-0.04
		c-0.1-0.03-0.15-0.1-0.16-0.21c-0.01-0.1,0.03-0.26,0.1-0.48l0.61-1.83c0.13-0.38,0.25-0.76,0.39-1.15
		c0.14-0.39,0.26-0.74,0.38-1.07c0.12-0.33,0.21-0.59,0.28-0.77c0.07,0.18,0.17,0.42,0.28,0.74c0.11,0.31,0.23,0.66,0.35,1.04
		c0.13,0.37,0.24,0.74,0.36,1.1l0.63,1.97c0.07,0.21,0.09,0.36,0.09,0.46c-0.01,0.1-0.06,0.17-0.15,0.2
		c-0.09,0.03-0.23,0.05-0.42,0.04H177.2z M265.63,357.76c0-0.67,0.01-1.3,0.04-1.89c0.02-0.59,0.06-1.11,0.11-1.56
		c0.06-0.45,0.13-0.78,0.22-1.01c0.11-0.25,0.28-0.44,0.51-0.56c0.22-0.12,0.49-0.2,0.81-0.25l0.44-0.07
		c0.07-0.07,0.11-0.17,0.12-0.28c0.02-0.11,0.01-0.23-0.01-0.33c-0.02-0.11-0.06-0.19-0.11-0.24c-0.47,0.03-0.93,0.04-1.38,0.06
		c-0.45,0.02-0.9,0.02-1.35,0.02c-0.33,0-0.66-0.01-1-0.01c-0.33,0-0.69-0.01-1.05-0.02c-0.37-0.01-0.77-0.03-1.21-0.04
		c-0.05,0.06-0.08,0.13-0.11,0.24c-0.02,0.1-0.02,0.22-0.01,0.33c0.02,0.11,0.05,0.21,0.12,0.28l0.66,0.1
		c0.33,0.04,0.62,0.12,0.87,0.23c0.25,0.11,0.43,0.29,0.54,0.55c0.09,0.22,0.16,0.56,0.21,1.01c0.06,0.45,0.09,0.97,0.12,1.56
		c0.02,0.59,0.03,1.22,0.03,1.89v3.36c0.01,0.22,0,0.43-0.01,0.62c-0.01,0.19-0.04,0.35-0.08,0.47c-0.28-0.27-0.6-0.63-0.98-1.07
		c-0.37-0.44-0.83-0.97-1.36-1.6l-2.04-2.41c-0.74-0.87-1.39-1.65-1.96-2.35c-0.57-0.7-1.04-1.32-1.4-1.85
		c-0.35-0.53-0.57-0.98-0.66-1.35c-0.25,0.03-0.56,0.04-0.9,0.06c-0.35,0.02-0.73,0.02-1.14,0.02c-0.5,0-1.05-0.01-1.62-0.02
		c-0.58-0.01-1.16-0.03-1.74-0.06c-0.08,0.03-0.14,0.1-0.17,0.21c-0.03,0.11-0.04,0.23-0.03,0.35c0.01,0.13,0.05,0.22,0.11,0.29
		l0.68,0.1c0.29,0.04,0.52,0.1,0.7,0.17c0.18,0.08,0.33,0.17,0.44,0.28c0.11,0.11,0.19,0.23,0.26,0.37c0.05,0.1,0.08,0.24,0.11,0.39
		c0.02,0.15,0.04,0.36,0.05,0.62c0.01,0.26,0.01,0.61,0.01,1.05v6.19c0,0.67-0.01,1.29-0.03,1.88c-0.02,0.6-0.06,1.11-0.1,1.56
		c-0.05,0.45-0.12,0.78-0.21,1.01c-0.1,0.25-0.26,0.43-0.49,0.55c-0.23,0.12-0.51,0.2-0.84,0.25l-0.42,0.07
		c-0.06,0.07-0.1,0.16-0.12,0.28c-0.01,0.11-0.01,0.22,0.01,0.33c0.02,0.11,0.06,0.19,0.11,0.25c0.46-0.03,0.92-0.05,1.37-0.05
		c0.45-0.01,0.91-0.02,1.35-0.02c0.32,0,0.65,0.01,0.98,0.01c0.34,0.01,0.69,0.01,1.06,0.02c0.37,0.01,0.78,0.02,1.21,0.04
		c0.05-0.05,0.08-0.14,0.11-0.25c0.02-0.11,0.02-0.22,0.01-0.33c-0.01-0.12-0.05-0.21-0.12-0.28l-0.68-0.1
		c-0.32-0.04-0.61-0.12-0.86-0.24c-0.25-0.11-0.44-0.29-0.55-0.54c-0.09-0.23-0.16-0.56-0.22-1.01c-0.06-0.45-0.09-0.96-0.12-1.56
		c-0.02-0.59-0.04-1.22-0.04-1.88v-4.72c0-0.44,0.01-0.79,0.02-1.03c0.01-0.24,0.05-0.42,0.11-0.53c0.22,0.18,0.54,0.53,0.96,1.05
		c0.43,0.51,0.99,1.2,1.69,2.07l5.62,6.96c0.39,0.48,0.72,0.92,1.02,1.31c0.29,0.4,0.52,0.72,0.69,0.97
		c0.16,0.24,0.26,0.37,0.26,0.38c0.2,0,0.4-0.03,0.6-0.08c0.19-0.05,0.37-0.12,0.52-0.2c0.15-0.08,0.26-0.18,0.32-0.28
		c-0.02-0.27-0.03-0.61-0.03-1.02c-0.01-0.41-0.01-0.86-0.01-1.36c0-0.49,0-1.01,0-1.54V357.76z M54.94,355.15
		c-0.01-0.56,0.01-1.01,0.04-1.34c0.03-0.33,0.08-0.59,0.17-0.76c0.08-0.17,0.21-0.29,0.38-0.36c0.17-0.07,0.38-0.13,0.66-0.16
		l0.63-0.1c0.07-0.06,0.11-0.14,0.13-0.26c0.02-0.12,0.02-0.23,0-0.35c-0.02-0.11-0.07-0.2-0.13-0.25
		c-0.61,0.03-1.22,0.04-1.82,0.06c-0.61,0.02-1.2,0.02-1.79,0.02c-1.17,0-2.38-0.03-3.65-0.08c-0.1,0.06-0.16,0.14-0.19,0.25
		c-0.03,0.12-0.04,0.23-0.01,0.35c0.03,0.12,0.08,0.2,0.16,0.26l0.7,0.1c0.27,0.03,0.49,0.08,0.66,0.15
		c0.17,0.07,0.29,0.19,0.38,0.36c0.08,0.17,0.14,0.43,0.17,0.76c0.03,0.34,0.05,0.79,0.04,1.35v9.06c0.01,0.56-0.01,1-0.04,1.34
		c-0.03,0.33-0.08,0.58-0.17,0.75c-0.09,0.17-0.21,0.29-0.38,0.36c-0.17,0.07-0.39,0.12-0.66,0.15l-0.92,0.12
		c-0.07,0.05-0.1,0.14-0.12,0.25c-0.01,0.12,0,0.23,0.03,0.34c0.03,0.12,0.08,0.2,0.16,0.26c0.75-0.03,1.44-0.05,2.07-0.06
		c0.63-0.01,1.22-0.02,1.78-0.02h3.26c0.51,0,1.02,0,1.54,0.01c0.52,0,1.04,0.01,1.54,0.01c0.5,0.01,0.97,0.02,1.4,0.02
		c0.44,0.01,0.82,0.02,1.14,0.03c0.09-0.17,0.18-0.41,0.29-0.71c0.11-0.31,0.21-0.65,0.31-1.03c0.11-0.38,0.19-0.76,0.28-1.14
		c0.08-0.38,0.13-0.74,0.17-1.06c-0.06-0.1-0.15-0.17-0.27-0.22c-0.12-0.05-0.24-0.07-0.37-0.06c-0.12,0.01-0.22,0.05-0.29,0.13
		c-0.29,0.56-0.55,1.02-0.79,1.39c-0.24,0.36-0.48,0.65-0.72,0.85c-0.23,0.21-0.49,0.36-0.76,0.45c-0.26,0.09-0.57,0.15-0.9,0.18
		c-0.34,0.02-0.73,0.03-1.16,0.03c-0.44,0-0.81-0.01-1.1-0.04c-0.29-0.02-0.53-0.06-0.71-0.12c-0.18-0.05-0.33-0.11-0.44-0.19
		c-0.11-0.08-0.2-0.16-0.28-0.27c-0.15-0.2-0.26-0.49-0.32-0.87c-0.06-0.39-0.09-0.87-0.09-1.44V355.15z M99.99,351.26
		c-1.02,0.01-1.97,0.15-2.86,0.43c-0.88,0.28-1.68,0.68-2.4,1.19c-0.71,0.52-1.33,1.13-1.84,1.84c-0.51,0.71-0.9,1.49-1.18,2.35
		c-0.27,0.86-0.41,1.77-0.41,2.74c0,1.27,0.22,2.42,0.63,3.44c0.41,1.02,1,1.89,1.75,2.61c0.76,0.72,1.65,1.28,2.67,1.66
		c1.03,0.38,2.15,0.57,3.38,0.58c1.31-0.01,2.51-0.19,3.58-0.58c1.08-0.39,2-0.94,2.78-1.68c0.77-0.73,1.37-1.62,1.79-2.67
		c0.42-1.05,0.63-2.23,0.63-3.56c0-1.24-0.21-2.37-0.62-3.39c-0.41-1.02-0.99-1.9-1.75-2.64c-0.76-0.74-1.65-1.31-2.7-1.71
		C102.42,351.46,101.26,351.26,99.99,351.26 M104.64,359.92c0,0.99-0.08,1.91-0.24,2.77c-0.16,0.85-0.42,1.6-0.78,2.24
		c-0.35,0.64-0.81,1.14-1.37,1.5c-0.56,0.36-1.24,0.54-2.04,0.55c-0.66-0.01-1.24-0.12-1.75-0.36c-0.51-0.24-0.94-0.57-1.31-0.98
		c-0.37-0.41-0.68-0.88-0.93-1.41c-0.25-0.53-0.45-1.08-0.6-1.66c-0.15-0.58-0.26-1.15-0.32-1.72c-0.07-0.57-0.1-1.1-0.1-1.61
		c0-1.02,0.1-1.95,0.3-2.79c0.2-0.84,0.49-1.56,0.88-2.17c0.39-0.61,0.87-1.08,1.45-1.41c0.57-0.33,1.23-0.49,1.98-0.5
		c0.6,0,1.16,0.13,1.66,0.39c0.5,0.25,0.95,0.61,1.35,1.07c0.4,0.46,0.73,1.01,1,1.63c0.27,0.63,0.48,1.32,0.62,2.07
		C104.57,358.29,104.64,359.09,104.64,359.92 M142.51,369.52V355.2c0-0.57,0.01-1.02,0.04-1.35c0.03-0.33,0.08-0.59,0.17-0.75
		c0.09-0.17,0.22-0.29,0.39-0.37c0.17-0.07,0.39-0.13,0.67-0.18l0.63-0.12c0.07-0.06,0.11-0.14,0.13-0.26
		c0.02-0.12,0.02-0.23,0-0.35c-0.02-0.11-0.06-0.2-0.13-0.25c-1.27,0.05-2.48,0.08-3.65,0.08c-0.57,0-1.17-0.01-1.8-0.02
		c-0.64-0.01-1.34-0.03-2.11-0.06c-0.07,0.06-0.11,0.14-0.13,0.25c-0.02,0.12-0.02,0.23,0,0.35c0.02,0.12,0.07,0.2,0.13,0.26
		l0.92,0.14c0.28,0.04,0.5,0.09,0.67,0.16c0.17,0.07,0.3,0.19,0.39,0.36c0.08,0.17,0.14,0.42,0.17,0.76
		c0.03,0.33,0.04,0.78,0.04,1.35v14.72c-0.04,0.69-0.12,1.09-0.54,1.08c-0.83,0.09-0.25-0.71-0.49-1.49
		c-0.29-0.97-2.21-0.92-2.22,0.51c0.06,2.2,1.53,3.18,3.15,3.21C140.67,373.25,142.46,372.02,142.51,369.52 M220.79,355.2
		c-0.01-0.57,0.01-1.02,0.04-1.35c0.03-0.33,0.09-0.59,0.17-0.76c0.09-0.17,0.22-0.29,0.39-0.37c0.17-0.07,0.39-0.13,0.67-0.18
		l0.68-0.12c0.07-0.06,0.11-0.14,0.13-0.26c0.02-0.12,0.02-0.23,0-0.35c-0.02-0.11-0.07-0.2-0.13-0.25
		c-0.66,0.03-1.29,0.04-1.9,0.06c-0.61,0.02-1.2,0.02-1.77,0.02c-0.58,0-1.18-0.01-1.79-0.02c-0.61-0.01-1.25-0.03-1.91-0.06
		c-0.06,0.06-0.11,0.14-0.13,0.25c-0.02,0.12-0.02,0.23,0,0.35c0.02,0.12,0.07,0.2,0.13,0.26l0.68,0.12c0.28,0.04,0.5,0.1,0.67,0.18
		c0.17,0.07,0.3,0.19,0.39,0.37c0.09,0.17,0.14,0.42,0.17,0.76c0.03,0.34,0.04,0.78,0.04,1.35v8.96c0,0.57-0.01,1.02-0.04,1.35
		c-0.03,0.34-0.08,0.59-0.17,0.76c-0.09,0.17-0.22,0.29-0.39,0.36c-0.17,0.07-0.39,0.13-0.67,0.17l-0.68,0.12
		c-0.06,0.05-0.11,0.14-0.13,0.25c-0.02,0.12-0.02,0.23,0,0.35c0.02,0.12,0.07,0.2,0.13,0.25c0.66-0.03,1.29-0.05,1.91-0.05
		c0.61-0.01,1.21-0.02,1.79-0.02c0.57,0,1.16,0.01,1.76,0.02c0.61,0.01,1.24,0.03,1.89,0.05c0.07-0.05,0.11-0.14,0.14-0.25
		c0.03-0.12,0.03-0.23,0.01-0.35c-0.02-0.11-0.06-0.2-0.12-0.25l-0.68-0.12c-0.28-0.04-0.5-0.1-0.67-0.17
		c-0.17-0.07-0.3-0.2-0.39-0.36c-0.08-0.18-0.14-0.43-0.17-0.76c-0.03-0.33-0.04-0.78-0.04-1.35V355.2z M471.74,353.47
		c-0.54-2.12-2.14-2.19-3.13-1.7c-0.44,0.21-0.93,0.46-1.5,0.71c-0.38,0.17-0.14,1.19,0.41,1.14c0.41-0.23,0.72-0.39,0.97-0.48
		c-0.02,0.12-0.04,0.24-0.07,0.36c-0.07,0.28-0.18,0.61-0.33,0.99c-0.14,0.38-0.31,0.82-0.5,1.32l-2.21,5.94
		c-0.22,0.58-0.42,1.11-0.6,1.57c-0.18,0.46-0.35,0.89-0.5,1.27c-0.15,0.38-0.29,0.73-0.43,1.05c-0.14,0.31-0.29,0.55-0.44,0.72
		c-0.15,0.17-0.32,0.29-0.5,0.36c-0.17,0.07-0.35,0.12-0.55,0.14l-0.66,0.07c-0.06,0.07-0.1,0.16-0.12,0.28
		c-0.02,0.11-0.01,0.22,0.02,0.33c0.03,0.11,0.09,0.19,0.18,0.25c0.37,0,0.69-0.01,0.97-0.02c0.27-0.01,0.53-0.02,0.77-0.03
		c0.24-0.01,0.5-0.02,0.77-0.02c0.51,0.01,0.99,0.02,1.44,0.03c0.45,0.01,0.89,0.02,1.31,0.05c0.08-0.05,0.13-0.13,0.15-0.24
		c0.02-0.12,0.02-0.23,0-0.35c-0.02-0.12-0.06-0.2-0.11-0.26l-0.73-0.12c-0.34-0.06-0.59-0.13-0.75-0.2
		c-0.16-0.07-0.24-0.14-0.24-0.22c-0.01-0.09,0.01-0.2,0.03-0.33c0.02-0.13,0.07-0.31,0.14-0.55l0.95-2.82
		c0.04-0.15,0.09-0.26,0.14-0.33c0.06-0.07,0.13-0.12,0.23-0.13c0.1-0.02,0.24-0.03,0.44-0.03h2.9c0.28,0,0.5,0.01,0.65,0.03
		c0.16,0.02,0.27,0.06,0.35,0.12c0.07,0.06,0.13,0.16,0.17,0.29l0.66,2.09c0.15,0.45,0.26,0.82,0.34,1.1
		c0.08,0.28,0.12,0.47,0.12,0.55c0,0.05-0.01,0.1-0.05,0.15c-0.03,0.06-0.1,0.1-0.19,0.15c-0.09,0.05-0.23,0.09-0.42,0.12
		l-0.78,0.12c-0.09,0.07-0.14,0.16-0.17,0.28c-0.02,0.11-0.01,0.22,0.02,0.33c0.04,0.11,0.1,0.19,0.19,0.25
		c0.37-0.02,0.73-0.03,1.08-0.04c0.35-0.01,0.7-0.02,1.06-0.02c0.36,0,0.74-0.01,1.15-0.01c0.63,0,1.27,0.01,1.91,0.02
		c0.63,0.01,1.25,0.03,1.84,0.05c0.07-0.05,0.12-0.14,0.14-0.26c0.02-0.12,0.02-0.23-0.01-0.35c-0.02-0.12-0.06-0.2-0.11-0.24
		l-0.92-0.15c-0.29-0.04-0.53-0.14-0.71-0.3c-0.18-0.16-0.34-0.39-0.47-0.69c-0.13-0.3-0.28-0.69-0.45-1.18l-3.31-9.54
		c-0.14-0.38-0.26-0.73-0.36-1.05C471.87,353.86,471.81,353.67,471.74,353.47 M421.26,364.21c0,0.56-0.01,0.99-0.04,1.32
		c-0.03,0.33-0.08,0.58-0.17,0.75c-0.08,0.17-0.21,0.29-0.37,0.36c-0.17,0.07-0.39,0.13-0.66,0.17l-0.66,0.12
		c-0.07,0.04-0.11,0.13-0.13,0.24c-0.02,0.11-0.02,0.23,0,0.35c0.02,0.12,0.07,0.21,0.13,0.26c0.42-0.02,0.82-0.03,1.21-0.04
		c0.39-0.01,0.77-0.02,1.16-0.02c0.39,0,0.78-0.01,1.18-0.01c0.58,0,1.16,0.01,1.74,0.02c0.58,0.01,1.2,0.03,1.84,0.05
		c0.06-0.05,0.09-0.14,0.12-0.26c0.02-0.12,0.02-0.23,0-0.35c-0.02-0.12-0.06-0.2-0.12-0.24l-0.66-0.12
		c-0.27-0.04-0.49-0.1-0.66-0.17c-0.17-0.07-0.29-0.2-0.38-0.36c-0.08-0.17-0.14-0.42-0.17-0.75c-0.03-0.33-0.04-0.77-0.04-1.32v-3
		c0-0.16,0.01-0.28,0.05-0.36c0.03-0.08,0.11-0.13,0.24-0.15c0.13-0.02,0.33-0.03,0.61-0.03c0.3-0.01,0.56,0.05,0.76,0.18
		c0.21,0.13,0.39,0.35,0.53,0.67c0.28,0.64,0.56,1.27,0.87,1.89c0.3,0.62,0.65,1.25,1.03,1.89c0.35,0.58,0.76,1.06,1.21,1.44
		c0.44,0.38,0.96,0.66,1.54,0.84c0.57,0.18,1.24,0.27,1.98,0.27c0.26,0,0.5-0.01,0.75-0.02c0.24-0.01,0.47-0.03,0.67-0.07
		c0.2-0.03,0.37-0.08,0.51-0.14c0.04-0.05,0.07-0.12,0.08-0.2c0.01-0.08,0-0.16-0.03-0.24c-0.03-0.08-0.08-0.14-0.15-0.19
		c-0.19-0.01-0.43-0.06-0.72-0.15c-0.29-0.1-0.6-0.27-0.92-0.53c-0.39-0.33-0.76-0.76-1.14-1.3c-0.38-0.54-0.78-1.19-1.2-1.98
		c-0.42-0.79-0.9-1.72-1.43-2.81c-0.06-0.13-0.09-0.24-0.08-0.33c0.01-0.08,0.08-0.15,0.2-0.21c0.28-0.14,0.57-0.3,0.88-0.5
		c0.3-0.2,0.58-0.44,0.83-0.72c0.26-0.28,0.46-0.62,0.62-1.02c0.16-0.4,0.24-0.87,0.25-1.41c0-0.78-0.18-1.47-0.54-2.07
		c-0.36-0.6-0.89-1.11-1.6-1.53c-0.31-0.19-0.71-0.34-1.19-0.47c-0.48-0.13-1.02-0.23-1.63-0.3c-0.61-0.07-1.26-0.1-1.95-0.1
		c-0.77,0-1.5,0.01-2.19,0.03c-0.69,0.02-1.35,0.05-1.99,0.08c-0.63,0.03-1.26,0.07-1.86,0.11c-0.1,0.04-0.17,0.13-0.19,0.25
		c-0.04,0.12-0.04,0.24-0.01,0.36c0.02,0.12,0.08,0.2,0.16,0.25l0.66,0.1c0.25,0.03,0.46,0.08,0.6,0.16
		c0.14,0.08,0.25,0.22,0.32,0.4c0.06,0.19,0.11,0.46,0.13,0.83c0.02,0.36,0.03,0.85,0.02,1.45V364.21z M424.59,353.94
		c0-0.39,0.01-0.67,0.05-0.84c0.04-0.18,0.13-0.29,0.28-0.34c0.15-0.05,0.38-0.07,0.71-0.06c0.64,0.01,1.19,0.15,1.67,0.45
		c0.47,0.3,0.85,0.71,1.11,1.25c0.27,0.54,0.4,1.17,0.4,1.9c0,0.48-0.05,0.89-0.13,1.23c-0.09,0.34-0.2,0.62-0.33,0.85
		c-0.13,0.23-0.27,0.41-0.41,0.55c-0.22,0.23-0.48,0.4-0.77,0.51c-0.29,0.11-0.65,0.17-1.08,0.17c-0.36,0-0.63-0.01-0.84-0.03
		c-0.2-0.02-0.36-0.06-0.45-0.12c-0.09-0.06-0.15-0.15-0.18-0.28c-0.03-0.13-0.04-0.29-0.03-0.5V353.94z M467.78,360.92
		c-0.2,0-0.35-0.01-0.45-0.05c-0.1-0.03-0.15-0.1-0.16-0.2c0-0.1,0.03-0.26,0.1-0.48l0.61-1.83c0.13-0.38,0.25-0.76,0.39-1.15
		c0.14-0.39,0.26-0.74,0.38-1.07c0.12-0.33,0.21-0.59,0.28-0.78c0.08,0.18,0.17,0.42,0.28,0.74c0.12,0.31,0.23,0.66,0.36,1.04
		c0.12,0.38,0.24,0.74,0.36,1.1l0.63,1.97c0.06,0.21,0.09,0.36,0.08,0.46c-0.01,0.1-0.06,0.17-0.15,0.2
		c-0.09,0.03-0.23,0.04-0.42,0.04H467.78z M520.76,357.76c0-0.67,0.01-1.3,0.04-1.89c0.02-0.59,0.06-1.11,0.11-1.56
		c0.06-0.45,0.13-0.78,0.22-1.01c0.11-0.25,0.28-0.44,0.5-0.56c0.22-0.12,0.5-0.2,0.81-0.25l0.44-0.07c0.06-0.07,0.1-0.17,0.12-0.28
		c0.02-0.11,0.01-0.23-0.01-0.33c-0.03-0.11-0.06-0.19-0.11-0.24c-0.47,0.03-0.93,0.04-1.38,0.06c-0.45,0.02-0.89,0.02-1.35,0.02
		c-0.33,0-0.66-0.01-1-0.01c-0.33,0-0.68-0.01-1.05-0.02c-0.37-0.01-0.77-0.03-1.21-0.04c-0.05,0.06-0.09,0.13-0.11,0.24
		c-0.02,0.1-0.03,0.22-0.01,0.33c0.01,0.11,0.05,0.21,0.12,0.28l0.66,0.1c0.33,0.04,0.62,0.12,0.87,0.23
		c0.24,0.11,0.43,0.29,0.54,0.55c0.09,0.22,0.16,0.56,0.22,1.01c0.05,0.45,0.09,0.97,0.12,1.56c0.02,0.59,0.03,1.22,0.03,1.89v3.36
		c0,0.22,0,0.43-0.01,0.62c-0.01,0.19-0.03,0.35-0.08,0.47c-0.28-0.27-0.6-0.63-0.98-1.07c-0.37-0.44-0.83-0.97-1.36-1.6l-2.05-2.41
		c-0.73-0.87-1.39-1.65-1.96-2.35c-0.57-0.7-1.04-1.32-1.39-1.85c-0.35-0.53-0.58-0.98-0.66-1.35c-0.26,0.03-0.56,0.04-0.91,0.06
		c-0.34,0.02-0.72,0.02-1.14,0.02c-0.5,0-1.05-0.01-1.62-0.02c-0.58-0.01-1.16-0.03-1.74-0.06c-0.08,0.03-0.14,0.1-0.17,0.21
		c-0.03,0.11-0.05,0.23-0.03,0.35c0.01,0.13,0.05,0.22,0.11,0.29l0.68,0.1c0.28,0.04,0.51,0.1,0.7,0.17
		c0.18,0.08,0.33,0.17,0.44,0.28c0.11,0.11,0.19,0.23,0.25,0.37c0.05,0.1,0.09,0.24,0.11,0.39c0.03,0.15,0.04,0.36,0.05,0.62
		c0.01,0.26,0.01,0.61,0.01,1.05v6.19c0,0.67-0.01,1.29-0.03,1.88c-0.02,0.6-0.06,1.11-0.1,1.56c-0.05,0.45-0.12,0.78-0.21,1.01
		c-0.1,0.25-0.26,0.43-0.5,0.55c-0.23,0.12-0.51,0.2-0.84,0.25l-0.41,0.07c-0.06,0.07-0.1,0.16-0.12,0.28
		c-0.02,0.11-0.01,0.22,0.01,0.33c0.03,0.11,0.06,0.19,0.11,0.25c0.46-0.03,0.92-0.05,1.37-0.05c0.46-0.01,0.91-0.02,1.36-0.02
		c0.33,0,0.65,0.01,0.99,0.01c0.34,0.01,0.69,0.01,1.06,0.02c0.38,0.01,0.78,0.02,1.21,0.04c0.05-0.05,0.08-0.14,0.11-0.25
		c0.02-0.11,0.03-0.22,0.01-0.33c-0.01-0.12-0.05-0.21-0.12-0.28l-0.68-0.1c-0.32-0.04-0.61-0.12-0.86-0.24
		c-0.25-0.11-0.44-0.29-0.55-0.54c-0.09-0.23-0.15-0.56-0.22-1.01c-0.05-0.45-0.09-0.96-0.11-1.56c-0.02-0.59-0.03-1.22-0.03-1.88
		v-4.72c-0.01-0.44,0-0.79,0.02-1.03c0.01-0.24,0.05-0.42,0.11-0.53c0.22,0.18,0.54,0.53,0.96,1.05c0.42,0.51,0.99,1.2,1.69,2.07
		l5.62,6.96c0.39,0.48,0.72,0.92,1.02,1.31c0.29,0.4,0.52,0.72,0.69,0.97c0.17,0.24,0.26,0.37,0.27,0.38c0.2,0,0.4-0.03,0.6-0.08
		c0.2-0.05,0.37-0.12,0.52-0.2c0.15-0.08,0.25-0.18,0.31-0.28c-0.02-0.27-0.03-0.61-0.03-1.02c-0.01-0.41-0.01-0.86-0.01-1.36
		c-0.01-0.49-0.01-1.01-0.01-1.54V357.76z M335.46,351.26c-1.02,0.01-1.97,0.15-2.86,0.43c-0.88,0.28-1.68,0.68-2.4,1.19
		c-0.72,0.52-1.33,1.13-1.84,1.84c-0.51,0.71-0.9,1.49-1.18,2.35c-0.27,0.86-0.41,1.77-0.41,2.74c0,1.27,0.22,2.42,0.63,3.44
		c0.41,1.02,1,1.89,1.76,2.61c0.75,0.72,1.64,1.28,2.67,1.66c1.03,0.38,2.15,0.57,3.38,0.58c1.31-0.01,2.51-0.19,3.58-0.58
		c1.08-0.39,2-0.94,2.78-1.68c0.77-0.73,1.37-1.62,1.79-2.67c0.42-1.05,0.63-2.23,0.63-3.56c0-1.24-0.21-2.37-0.62-3.39
		c-0.41-1.02-0.99-1.9-1.75-2.64c-0.76-0.74-1.66-1.31-2.7-1.71C337.89,351.46,336.73,351.26,335.46,351.26 M340.11,359.92
		c0,0.99-0.08,1.91-0.24,2.77c-0.16,0.85-0.42,1.6-0.78,2.24c-0.35,0.64-0.81,1.14-1.37,1.5c-0.56,0.36-1.24,0.54-2.04,0.55
		c-0.66-0.01-1.24-0.12-1.75-0.36c-0.51-0.24-0.95-0.57-1.31-0.98c-0.37-0.41-0.68-0.88-0.93-1.41c-0.25-0.53-0.45-1.08-0.6-1.66
		c-0.15-0.58-0.26-1.15-0.32-1.72c-0.07-0.57-0.1-1.1-0.1-1.61c0-1.02,0.1-1.95,0.3-2.79c0.2-0.84,0.49-1.56,0.88-2.17
		c0.39-0.61,0.87-1.08,1.44-1.41c0.57-0.33,1.23-0.49,1.98-0.5c0.61,0,1.16,0.13,1.66,0.39c0.5,0.25,0.95,0.61,1.35,1.07
		c0.39,0.46,0.73,1.01,1,1.63c0.27,0.63,0.48,1.32,0.62,2.07C340.04,358.29,340.11,359.09,340.11,359.92"/>
</g>
</svg>
