<?xml version="1.0" encoding="utf-8"?>
<!-- Generator: Adobe Illustrator 25.0.0, SVG Export Plug-In . SVG Version: 6.00 Build 0)  -->
<svg version="1.0" id="Layer_1" xmlns="http://www.w3.org/2000/svg" xmlns:xlink="http://www.w3.org/1999/xlink" x="0px" y="0px"
	 viewBox="0 0 571.97 178.02" style="enable-background:new 0 0 571.97 178.02;" xml:space="preserve">
<style type="text/css">
	.st0{fill:#ADADAD;}
</style>
<g>
	<g>
		<path class="st0" d="M197.67,21.57h2.94v27.15h34.18V21.57h2.94v57.24h-2.94V51.5h-34.18v27.31h-2.94V21.57z"/>
		<path class="st0" d="M250.57,50.43c0-18.64,4.42-29.6,21.91-29.6c17.5,0,21.91,10.79,21.91,29.6c0,19.79-4.33,29.11-21.91,29.11
			C254.82,79.54,250.57,69.4,250.57,50.43z M291.29,50.43c0-16.93-3.43-26.82-18.81-26.82c-15.54,0-18.81,9.73-18.81,26.82
			c0,17.17,3.03,26.33,18.81,26.33C288.26,76.76,291.29,68.42,291.29,50.43z"/>
		<path class="st0" d="M306.9,62.78V21.57h2.94v41.21c0,10.3,5.97,13.98,15.54,13.98c10.3,0,16.35-3.6,16.35-13.98V21.57h2.94v41.21
			c0,12.26-7.03,16.76-19.3,16.76C313.93,79.54,306.9,75.13,306.9,62.78z"/>
		<path class="st0" d="M356.78,78.07l0.33-2.86c4.82,0.57,12.84,1.39,17.09,1.39c9.32,0,14.31-3.92,14.31-14.15
			c0-8.34-4.25-10.22-14.31-11.77c-11.2-1.72-17.74-3.6-17.74-15.62c0-10.55,6.79-14.39,17.66-14.39c4.58,0,12.02,0.74,16.27,1.31
			l-0.33,2.86c-4.82-0.57-12.51-1.39-15.94-1.39c-9.32,0-14.55,3.27-14.55,11.45c0,9.98,5.07,11.2,15.37,12.84
			c10.79,1.72,16.68,4.17,16.68,14.47c0,12.76-6.05,17.17-17.33,17.17C369.78,79.38,361.68,78.64,356.78,78.07z"/>
		<path class="st0" d="M403.54,21.57h33.44v2.78h-30.5v23.79h25.59v2.78h-25.59v25.1h30.5v2.78h-33.44V21.57z"/>
		<path class="st0" d="M464.46,50.43c0-18.64,4.42-29.6,21.91-29.6c17.5,0,21.91,10.79,21.91,29.6c0,19.79-4.33,29.11-21.91,29.11
			C468.71,79.54,464.46,69.4,464.46,50.43z M505.18,50.43c0-16.93-3.43-26.82-18.81-26.82c-15.54,0-18.81,9.73-18.81,26.82
			c0,17.17,3.03,26.33,18.81,26.33C502.15,76.76,505.18,68.42,505.18,50.43z"/>
		<path class="st0" d="M521.12,21.57h32.79v2.78h-29.84v25.84h25.67v2.78h-25.67v25.84h-2.94V21.57z"/>
		<path class="st0" d="M197.67,99.37h33.06v2.75h-30.15v23.52h25.3v2.75h-25.3v24.82h30.15v2.75h-33.06V99.37z"/>
		<path class="st0" d="M242.29,99.37h2.91v53.84h27.57v2.75h-30.48V99.37z"/>
		<path class="st0" d="M281.33,99.37h33.06v2.75h-30.15v23.52h25.3v2.75h-25.3v24.82h30.15v2.75h-33.06V99.37z"/>
		<path class="st0" d="M322.96,127.91c0-17.62,3.96-29.26,21.18-29.26c6.22,0,13.82,1.13,17.78,2.02l-0.24,2.83
			c-4.37-0.89-12.21-2.1-17.54-2.1c-15.2,0-18.11,10.43-18.11,26.51c0,16.17,3.23,26.03,18.11,26.03c4.53,0,11.32-0.97,14.87-1.62
			v-21.66h-12.13v-2.75h15.04v26.76c-2.91,0.57-12.45,2.02-17.78,2.02C327.49,156.68,322.96,145.85,322.96,127.91z"/>
		<path class="st0" d="M387.39,99.37h8.57l17.38,56.59h-2.91l-5.25-17.38h-27l-5.25,17.38h-2.91L387.39,99.37z M404.28,135.83
			l-10.35-33.71h-4.53l-10.35,33.71H404.28z"/>
		<path class="st0" d="M423.03,99.37h6.87l26.92,53.84H459V99.37h2.91v56.59h-6.87l-27-53.84h-2.1v53.84h-2.91V99.37z"/>
		<path class="st0" d="M474.77,127.91c0-17.62,2.91-29.26,20.13-29.26c5.66,0,11.24,0.81,14.95,1.54l-0.24,2.83
			c-3.48-0.73-9.86-1.62-14.71-1.62c-15.2,0-17.06,10.43-17.06,26.51c0,16.17,2.18,26.03,17.06,26.03c5.09,0,10.51-0.81,14.71-1.62
			l0.24,2.75c-4.04,0.81-9.46,1.62-14.95,1.62C478.24,156.68,474.77,145.85,474.77,127.91z"/>
		<path class="st0" d="M520.84,99.37h33.06v2.75h-30.15v23.52h25.3v2.75h-25.3v24.82h30.15v2.75h-33.06V99.37z"/>
	</g>
	<g>
		<path class="st0" d="M18.06,20.1v137.82h137.82V20.1H18.06z M20.93,155.06V22.96h132.1v132.1H20.93z"/>
		<g>
			<polygon class="st0" points="55.63,62.76 52.93,62.76 52.93,115.26 55.63,115.26 55.63,90.21 81.69,90.21 81.69,87.66 
				55.63,87.66 			"/>
			<polygon class="st0" points="121.02,62.76 89.68,62.76 86.98,62.76 86.98,87.66 86.97,87.66 86.97,90.21 86.98,90.21 
				86.98,115.26 89.68,115.26 121.02,115.26 121.02,112.71 89.68,112.71 89.68,65.31 121.02,65.31 			"/>
			<rect x="94.96" y="87.74" class="st0" width="20.82" height="2.55"/>
		</g>
	</g>
</g>
</svg>
